<?xml version="1.0" encoding="UTF-8" standalone="no"?>
<!DOCTYPE svg PUBLIC "-//W3C//DTD SVG 1.1//EN"
 "http://www.w3.org/Graphics/SVG/1.1/DTD/svg11.dtd">
<!-- Generated by graphviz version 2.42.3 (20191010.1750)
 -->
<!-- Title: %3 Pages: 1 -->
<svg width="182pt" height="276pt"
 viewBox="0.00 0.00 181.77 276.00" xmlns="http://www.w3.org/2000/svg" xmlns:xlink="http://www.w3.org/1999/xlink">
<g id="graph0" class="graph" transform="scale(1 1) rotate(0) translate(4 272)">
<title>%3</title>
<polygon fill="white" stroke="transparent" points="-4,4 -4,-272 177.77,-272 177.77,4 -4,4"/>
<!-- 140667828678512 -->
<g id="node1" class="node">
<title>140667828678512</title>
<polygon fill="#caff70" stroke="black" points="147.92,-20 57.62,-20 57.62,0 147.92,0 147.92,-20"/>
<text text-anchor="middle" x="102.77" y="-6.4" font-family="Times,serif" font-size="12.00">MulBackward0</text>
</g>
<!-- 140667828676688 -->
<g id="node2" class="node">
<title>140667828676688</title>
<polygon fill="lightgrey" stroke="black" points="148.58,-76 56.96,-76 56.96,-56 148.58,-56 148.58,-76"/>
<text text-anchor="middle" x="102.77" y="-62.4" font-family="Times,serif" font-size="12.00">AddBackward0</text>
</g>
<!-- 140667828676688&#45;&gt;140667828678512 -->
<g id="edge1" class="edge">
<title>140667828676688&#45;&gt;140667828678512</title>
<path fill="none" stroke="black" d="M102.77,-55.59C102.77,-48.7 102.77,-39.1 102.77,-30.57"/>
<polygon fill="black" stroke="black" points="106.27,-30.3 102.77,-20.3 99.27,-30.3 106.27,-30.3"/>
</g>
<!-- 140667828661024 -->
<g id="node3" class="node">
<title>140667828661024</title>
<polygon fill="lightgrey" stroke="black" points="101.92,-138 17.62,-138 17.62,-118 101.92,-118 101.92,-138"/>
<text text-anchor="middle" x="59.77" y="-124.4" font-family="Times,serif" font-size="12.00">MmBackward</text>
</g>
<!-- 140667828661024&#45;&gt;140667828676688 -->
<g id="edge2" class="edge">
<title>140667828661024&#45;&gt;140667828676688</title>
<path fill="none" stroke="black" d="M66.3,-117.89C72.62,-109.08 82.35,-95.5 90.18,-84.58"/>
<polygon fill="black" stroke="black" points="93.2,-86.37 96.18,-76.2 87.51,-82.29 93.2,-86.37"/>
</g>
<!-- 140667828661984 -->
<g id="node4" class="node">
<title>140667828661984</title>
<polygon fill="lightgrey" stroke="black" points="119.32,-200 0.23,-200 0.23,-180 119.32,-180 119.32,-200"/>
<text text-anchor="middle" x="59.77" y="-186.4" font-family="Times,serif" font-size="12.00">TransposeBackward0</text>
</g>
<!-- 140667828661984&#45;&gt;140667828661024 -->
<g id="edge3" class="edge">
<title>140667828661984&#45;&gt;140667828661024</title>
<path fill="none" stroke="black" d="M59.77,-179.89C59.77,-171.52 59.77,-158.84 59.77,-148.23"/>
<polygon fill="black" stroke="black" points="63.27,-148.2 59.77,-138.2 56.27,-148.2 63.27,-148.2"/>
</g>
<!-- 140667828662224 -->
<g id="node5" class="node">
<title>140667828662224</title>
<polygon fill="lightblue" stroke="black" points="86.77,-268 32.77,-268 32.77,-236 86.77,-236 86.77,-268"/>
<text text-anchor="middle" x="59.77" y="-254.4" font-family="Times,serif" font-size="12.00">W</text>
<text text-anchor="middle" x="59.77" y="-242.4" font-family="Times,serif" font-size="12.00"> (5, 3)</text>
</g>
<!-- 140667828662224&#45;&gt;140667828661984 -->
<g id="edge4" class="edge">
<title>140667828662224&#45;&gt;140667828661984</title>
<path fill="none" stroke="black" d="M59.77,-235.86C59.77,-228.13 59.77,-218.63 59.77,-210.37"/>
<polygon fill="black" stroke="black" points="63.27,-210.15 59.77,-200.15 56.27,-210.15 63.27,-210.15"/>
</g>
<!-- 140667828658336 -->
<g id="node6" class="node">
<title>140667828658336</title>
<polygon fill="lightblue" stroke="black" points="173.77,-144 119.77,-144 119.77,-112 173.77,-112 173.77,-144"/>
<text text-anchor="middle" x="146.77" y="-130.4" font-family="Times,serif" font-size="12.00">b</text>
<text text-anchor="middle" x="146.77" y="-118.4" font-family="Times,serif" font-size="12.00"> (5)</text>
</g>
<!-- 140667828658336&#45;&gt;140667828676688 -->
<g id="edge5" class="edge">
<title>140667828658336&#45;&gt;140667828676688</title>
<path fill="none" stroke="black" d="M135.67,-111.86C129.55,-103.51 121.92,-93.11 115.55,-84.42"/>
<polygon fill="black" stroke="black" points="118.22,-82.15 109.49,-76.15 112.58,-86.29 118.22,-82.15"/>
</g>
</g>
</svg>
