<?xml version="1.0" encoding="UTF-8" standalone="no"?>
<!DOCTYPE svg PUBLIC "-//W3C//DTD SVG 1.1//EN"
 "http://www.w3.org/Graphics/SVG/1.1/DTD/svg11.dtd">
<!-- Generated by graphviz version 2.42.3 (20191010.1750)
 -->
<!-- Title: %3 Pages: 1 -->
<svg width="569pt" height="580pt"
 viewBox="0.00 0.00 568.97 580.00" xmlns="http://www.w3.org/2000/svg" xmlns:xlink="http://www.w3.org/1999/xlink">
<g id="graph0" class="graph" transform="scale(1 1) rotate(0) translate(4 576)">
<title>%3</title>
<polygon fill="white" stroke="transparent" points="-4,4 -4,-576 564.97,-576 564.97,4 -4,4"/>
<!-- 140645904529776 -->
<g id="node1" class="node">
<title>140645904529776</title>
<polygon fill="#caff70" stroke="black" points="398.81,-20 293.17,-20 293.17,0 398.81,0 398.81,-20"/>
<text text-anchor="middle" x="345.99" y="-6.4" font-family="Times,serif" font-size="12.00">SigmoidBackward</text>
</g>
<!-- 140645904528144 -->
<g id="node2" class="node">
<title>140645904528144</title>
<polygon fill="lightgrey" stroke="black" points="397.97,-76 294.01,-76 294.01,-56 397.97,-56 397.97,-76"/>
<text text-anchor="middle" x="345.99" y="-62.4" font-family="Times,serif" font-size="12.00">AddmmBackward</text>
</g>
<!-- 140645904528144&#45;&gt;140645904529776 -->
<g id="edge1" class="edge">
<title>140645904528144&#45;&gt;140645904529776</title>
<path fill="none" stroke="black" d="M345.99,-55.59C345.99,-48.7 345.99,-39.1 345.99,-30.57"/>
<polygon fill="black" stroke="black" points="349.49,-30.3 345.99,-20.3 342.49,-30.3 349.49,-30.3"/>
</g>
<!-- 140645904659504 -->
<g id="node3" class="node">
<title>140645904659504</title>
<polygon fill="lightblue" stroke="black" points="283.36,-144 218.61,-144 218.61,-112 283.36,-112 283.36,-144"/>
<text text-anchor="middle" x="250.99" y="-130.4" font-family="Times,serif" font-size="12.00">fc_hy.bias</text>
<text text-anchor="middle" x="250.99" y="-118.4" font-family="Times,serif" font-size="12.00"> (1)</text>
</g>
<!-- 140645904659504&#45;&gt;140645904528144 -->
<g id="edge2" class="edge">
<title>140645904659504&#45;&gt;140645904528144</title>
<path fill="none" stroke="black" d="M274.96,-111.86C289.57,-102.63 308.15,-90.9 322.64,-81.74"/>
<polygon fill="black" stroke="black" points="324.91,-84.45 331.49,-76.15 321.17,-78.53 324.91,-84.45"/>
</g>
<!-- 140645904659552 -->
<g id="node4" class="node">
<title>140645904659552</title>
<polygon fill="lightgrey" stroke="black" points="390.45,-138 301.52,-138 301.52,-118 390.45,-118 390.45,-138"/>
<text text-anchor="middle" x="345.99" y="-124.4" font-family="Times,serif" font-size="12.00">TanhBackward</text>
</g>
<!-- 140645904659552&#45;&gt;140645904528144 -->
<g id="edge3" class="edge">
<title>140645904659552&#45;&gt;140645904528144</title>
<path fill="none" stroke="black" d="M345.99,-117.89C345.99,-109.52 345.99,-96.84 345.99,-86.23"/>
<polygon fill="black" stroke="black" points="349.49,-86.2 345.99,-76.2 342.49,-86.2 349.49,-86.2"/>
</g>
<!-- 140645904659936 -->
<g id="node5" class="node">
<title>140645904659936</title>
<polygon fill="lightgrey" stroke="black" points="389.8,-206 298.18,-206 298.18,-186 389.8,-186 389.8,-206"/>
<text text-anchor="middle" x="343.99" y="-192.4" font-family="Times,serif" font-size="12.00">AddBackward0</text>
</g>
<!-- 140645904659936&#45;&gt;140645904659552 -->
<g id="edge4" class="edge">
<title>140645904659936&#45;&gt;140645904659552</title>
<path fill="none" stroke="black" d="M344.27,-185.82C344.56,-176.17 345.03,-160.69 345.4,-148.32"/>
<polygon fill="black" stroke="black" points="348.91,-148.2 345.71,-138.1 341.91,-147.99 348.91,-148.2"/>
</g>
<!-- 140645904659984 -->
<g id="node6" class="node">
<title>140645904659984</title>
<polygon fill="lightgrey" stroke="black" points="163.14,-436 78.84,-436 78.84,-416 163.14,-416 163.14,-436"/>
<text text-anchor="middle" x="120.99" y="-422.4" font-family="Times,serif" font-size="12.00">MmBackward</text>
</g>
<!-- 140645904659984&#45;&gt;140645904659936 -->
<g id="edge5" class="edge">
<title>140645904659984&#45;&gt;140645904659936</title>
<path fill="none" stroke="black" d="M130.01,-415.78C163.91,-381.11 284.04,-258.29 327.85,-213.5"/>
<polygon fill="black" stroke="black" points="330.61,-215.68 335.1,-206.09 325.61,-210.79 330.61,-215.68"/>
</g>
<!-- 140645904659792 -->
<g id="node7" class="node">
<title>140645904659792</title>
<polygon fill="lightblue" stroke="black" points="152.48,-504 89.5,-504 89.5,-472 152.48,-472 152.48,-504"/>
<text text-anchor="middle" x="120.99" y="-490.4" font-family="Times,serif" font-size="12.00">x2</text>
<text text-anchor="middle" x="120.99" y="-478.4" font-family="Times,serif" font-size="12.00"> (3, 1024)</text>
</g>
<!-- 140645904659792&#45;&gt;140645904659984 -->
<g id="edge6" class="edge">
<title>140645904659792&#45;&gt;140645904659984</title>
<path fill="none" stroke="black" d="M120.99,-471.86C120.99,-464.13 120.99,-454.63 120.99,-446.37"/>
<polygon fill="black" stroke="black" points="124.49,-446.15 120.99,-436.15 117.49,-446.15 124.49,-446.15"/>
</g>
<!-- 140645904659744 -->
<g id="node8" class="node">
<title>140645904659744</title>
<polygon fill="lightgrey" stroke="black" points="71.96,-498 0.01,-498 0.01,-478 71.96,-478 71.96,-498"/>
<text text-anchor="middle" x="35.99" y="-484.4" font-family="Times,serif" font-size="12.00">TBackward</text>
</g>
<!-- 140645904659744&#45;&gt;140645904659984 -->
<g id="edge7" class="edge">
<title>140645904659744&#45;&gt;140645904659984</title>
<path fill="none" stroke="black" d="M48.9,-477.89C62.46,-468.32 83.99,-453.12 100,-441.82"/>
<polygon fill="black" stroke="black" points="102.08,-444.63 108.23,-436 98.05,-438.91 102.08,-444.63"/>
</g>
<!-- 140645904660128 -->
<g id="node9" class="node">
<title>140645904660128</title>
<polygon fill="lightblue" stroke="black" points="261.47,-572 182.5,-572 182.5,-540 261.47,-540 261.47,-572"/>
<text text-anchor="middle" x="221.99" y="-558.4" font-family="Times,serif" font-size="12.00">fc_xh.weight</text>
<text text-anchor="middle" x="221.99" y="-546.4" font-family="Times,serif" font-size="12.00"> (10, 1024)</text>
</g>
<!-- 140645904660128&#45;&gt;140645904659744 -->
<g id="edge8" class="edge">
<title>140645904660128&#45;&gt;140645904659744</title>
<path fill="none" stroke="black" d="M182.09,-540.84C149.14,-529.15 102.84,-512.72 71.24,-501.51"/>
<polygon fill="black" stroke="black" points="72.13,-498.11 61.54,-498.07 69.79,-504.71 72.13,-498.11"/>
</g>
<!-- 140645904660656 -->
<g id="node16" class="node">
<title>140645904660656</title>
<polygon fill="lightgrey" stroke="black" points="322.96,-498 251.01,-498 251.01,-478 322.96,-478 322.96,-498"/>
<text text-anchor="middle" x="286.99" y="-484.4" font-family="Times,serif" font-size="12.00">TBackward</text>
</g>
<!-- 140645904660128&#45;&gt;140645904660656 -->
<g id="edge16" class="edge">
<title>140645904660128&#45;&gt;140645904660656</title>
<path fill="none" stroke="black" d="M237.06,-539.69C247.1,-529.5 260.3,-516.1 270.6,-505.64"/>
<polygon fill="black" stroke="black" points="273.29,-507.9 277.81,-498.32 268.3,-502.99 273.29,-507.9"/>
</g>
<!-- 140645904660032 -->
<g id="node10" class="node">
<title>140645904660032</title>
<polygon fill="lightgrey" stroke="black" points="473.97,-268 370.01,-268 370.01,-248 473.97,-248 473.97,-268"/>
<text text-anchor="middle" x="421.99" y="-254.4" font-family="Times,serif" font-size="12.00">AddmmBackward</text>
</g>
<!-- 140645904660032&#45;&gt;140645904659936 -->
<g id="edge9" class="edge">
<title>140645904660032&#45;&gt;140645904659936</title>
<path fill="none" stroke="black" d="M410.14,-247.89C397.81,-238.41 378.3,-223.4 363.66,-212.13"/>
<polygon fill="black" stroke="black" points="365.75,-209.32 355.69,-206 361.48,-214.87 365.75,-209.32"/>
</g>
<!-- 140645904660080 -->
<g id="node11" class="node">
<title>140645904660080</title>
<polygon fill="lightblue" stroke="black" points="496.64,-504 431.33,-504 431.33,-472 496.64,-472 496.64,-504"/>
<text text-anchor="middle" x="463.99" y="-490.4" font-family="Times,serif" font-size="12.00">fc_hh.bias</text>
<text text-anchor="middle" x="463.99" y="-478.4" font-family="Times,serif" font-size="12.00"> (10)</text>
</g>
<!-- 140645904660080&#45;&gt;140645904660032 -->
<g id="edge10" class="edge">
<title>140645904660080&#45;&gt;140645904660032</title>
<path fill="none" stroke="black" d="M462.85,-471.62C460.28,-439.9 453.02,-365.07 437.99,-304 435.81,-295.15 432.55,-285.61 429.55,-277.6"/>
<polygon fill="black" stroke="black" points="432.75,-276.18 425.85,-268.14 426.23,-278.73 432.75,-276.18"/>
</g>
<!-- 140645904660512 -->
<g id="node17" class="node">
<title>140645904660512</title>
<polygon fill="lightgrey" stroke="black" points="432.97,-436 329.01,-436 329.01,-416 432.97,-416 432.97,-436"/>
<text text-anchor="middle" x="380.99" y="-422.4" font-family="Times,serif" font-size="12.00">AddmmBackward</text>
</g>
<!-- 140645904660080&#45;&gt;140645904660512 -->
<g id="edge18" class="edge">
<title>140645904660080&#45;&gt;140645904660512</title>
<path fill="none" stroke="black" d="M443.04,-471.86C430.52,-462.81 414.66,-451.34 402.11,-442.27"/>
<polygon fill="black" stroke="black" points="403.8,-439.18 393.65,-436.15 399.7,-444.85 403.8,-439.18"/>
</g>
<!-- 140645904660176 -->
<g id="node12" class="node">
<title>140645904660176</title>
<polygon fill="lightgrey" stroke="black" points="429.45,-324 340.52,-324 340.52,-304 429.45,-304 429.45,-324"/>
<text text-anchor="middle" x="384.99" y="-310.4" font-family="Times,serif" font-size="12.00">TanhBackward</text>
</g>
<!-- 140645904660176&#45;&gt;140645904660032 -->
<g id="edge11" class="edge">
<title>140645904660176&#45;&gt;140645904660032</title>
<path fill="none" stroke="black" d="M391.43,-303.59C396.53,-296.16 403.78,-285.58 409.94,-276.58"/>
<polygon fill="black" stroke="black" points="412.85,-278.53 415.62,-268.3 407.08,-274.57 412.85,-278.53"/>
</g>
<!-- 140645904660320 -->
<g id="node13" class="node">
<title>140645904660320</title>
<polygon fill="lightgrey" stroke="black" points="426.8,-380 335.18,-380 335.18,-360 426.8,-360 426.8,-380"/>
<text text-anchor="middle" x="380.99" y="-366.4" font-family="Times,serif" font-size="12.00">AddBackward0</text>
</g>
<!-- 140645904660320&#45;&gt;140645904660176 -->
<g id="edge12" class="edge">
<title>140645904660320&#45;&gt;140645904660176</title>
<path fill="none" stroke="black" d="M381.68,-359.59C382.2,-352.63 382.92,-342.89 383.56,-334.29"/>
<polygon fill="black" stroke="black" points="387.05,-334.53 384.3,-324.3 380.07,-334.01 387.05,-334.53"/>
</g>
<!-- 140645904660416 -->
<g id="node14" class="node">
<title>140645904660416</title>
<polygon fill="lightgrey" stroke="black" points="311.14,-436 226.84,-436 226.84,-416 311.14,-416 311.14,-436"/>
<text text-anchor="middle" x="268.99" y="-422.4" font-family="Times,serif" font-size="12.00">MmBackward</text>
</g>
<!-- 140645904660416&#45;&gt;140645904660320 -->
<g id="edge13" class="edge">
<title>140645904660416&#45;&gt;140645904660320</title>
<path fill="none" stroke="black" d="M287.73,-415.96C305.58,-407.36 332.67,-394.3 353.06,-384.47"/>
<polygon fill="black" stroke="black" points="354.69,-387.56 362.18,-380.07 351.65,-381.26 354.69,-387.56"/>
</g>
<!-- 140645904660608 -->
<g id="node15" class="node">
<title>140645904660608</title>
<polygon fill="lightblue" stroke="black" points="233.48,-504 170.5,-504 170.5,-472 233.48,-472 233.48,-504"/>
<text text-anchor="middle" x="201.99" y="-490.4" font-family="Times,serif" font-size="12.00">x1</text>
<text text-anchor="middle" x="201.99" y="-478.4" font-family="Times,serif" font-size="12.00"> (3, 1024)</text>
</g>
<!-- 140645904660608&#45;&gt;140645904660416 -->
<g id="edge14" class="edge">
<title>140645904660608&#45;&gt;140645904660416</title>
<path fill="none" stroke="black" d="M218.89,-471.86C228.71,-463.07 241.06,-452.01 251.04,-443.07"/>
<polygon fill="black" stroke="black" points="253.65,-445.43 258.77,-436.15 248.98,-440.22 253.65,-445.43"/>
</g>
<!-- 140645904660656&#45;&gt;140645904660416 -->
<g id="edge15" class="edge">
<title>140645904660656&#45;&gt;140645904660416</title>
<path fill="none" stroke="black" d="M284.25,-477.89C281.72,-469.43 277.86,-456.57 274.66,-445.9"/>
<polygon fill="black" stroke="black" points="277.97,-444.77 271.75,-436.2 271.27,-446.78 277.97,-444.77"/>
</g>
<!-- 140645904660512&#45;&gt;140645904660320 -->
<g id="edge17" class="edge">
<title>140645904660512&#45;&gt;140645904660320</title>
<path fill="none" stroke="black" d="M380.99,-415.59C380.99,-408.7 380.99,-399.1 380.99,-390.57"/>
<polygon fill="black" stroke="black" points="384.49,-390.3 380.99,-380.3 377.49,-390.3 384.49,-390.3"/>
</g>
<!-- 140645904660704 -->
<g id="node18" class="node">
<title>140645904660704</title>
<polygon fill="lightgrey" stroke="black" points="412.96,-498 341.01,-498 341.01,-478 412.96,-478 412.96,-498"/>
<text text-anchor="middle" x="376.99" y="-484.4" font-family="Times,serif" font-size="12.00">TBackward</text>
</g>
<!-- 140645904660704&#45;&gt;140645904660512 -->
<g id="edge19" class="edge">
<title>140645904660704&#45;&gt;140645904660512</title>
<path fill="none" stroke="black" d="M377.59,-477.89C378.15,-469.52 379,-456.84 379.7,-446.23"/>
<polygon fill="black" stroke="black" points="383.2,-446.41 380.37,-436.2 376.22,-445.94 383.2,-446.41"/>
</g>
<!-- 140645904660800 -->
<g id="node19" class="node">
<title>140645904660800</title>
<polygon fill="lightblue" stroke="black" points="480.47,-572 401.5,-572 401.5,-540 480.47,-540 480.47,-572"/>
<text text-anchor="middle" x="440.99" y="-558.4" font-family="Times,serif" font-size="12.00">fc_hh.weight</text>
<text text-anchor="middle" x="440.99" y="-546.4" font-family="Times,serif" font-size="12.00"> (10, 10)</text>
</g>
<!-- 140645904660800&#45;&gt;140645904660704 -->
<g id="edge20" class="edge">
<title>140645904660800&#45;&gt;140645904660704</title>
<path fill="none" stroke="black" d="M426.14,-539.69C416.26,-529.5 403.27,-516.1 393.12,-505.64"/>
<polygon fill="black" stroke="black" points="395.5,-503.06 386.02,-498.32 390.47,-507.93 395.5,-503.06"/>
</g>
<!-- 140645904660224 -->
<g id="node20" class="node">
<title>140645904660224</title>
<polygon fill="lightgrey" stroke="black" points="560.96,-380 489.01,-380 489.01,-360 560.96,-360 560.96,-380"/>
<text text-anchor="middle" x="524.99" y="-366.4" font-family="Times,serif" font-size="12.00">TBackward</text>
</g>
<!-- 140645904660800&#45;&gt;140645904660224 -->
<g id="edge22" class="edge">
<title>140645904660800&#45;&gt;140645904660224</title>
<path fill="none" stroke="black" d="M468.91,-539.95C482.31,-531.25 497.31,-519.03 505.99,-504 526.81,-467.95 527.83,-417.51 526.54,-390.27"/>
<polygon fill="black" stroke="black" points="530.03,-389.89 525.9,-380.13 523.04,-390.33 530.03,-389.89"/>
</g>
<!-- 140645904660224&#45;&gt;140645904660032 -->
<g id="edge21" class="edge">
<title>140645904660224&#45;&gt;140645904660032</title>
<path fill="none" stroke="black" d="M518.76,-359.68C509.81,-346.6 492.47,-322.35 474.99,-304 464.97,-293.49 452.66,-282.92 442.43,-274.66"/>
<polygon fill="black" stroke="black" points="444.43,-271.79 434.42,-268.33 440.09,-277.28 444.43,-271.79"/>
</g>
<!-- 140645904659600 -->
<g id="node21" class="node">
<title>140645904659600</title>
<polygon fill="lightgrey" stroke="black" points="481.96,-138 410.01,-138 410.01,-118 481.96,-118 481.96,-138"/>
<text text-anchor="middle" x="445.99" y="-124.4" font-family="Times,serif" font-size="12.00">TBackward</text>
</g>
<!-- 140645904659600&#45;&gt;140645904528144 -->
<g id="edge23" class="edge">
<title>140645904659600&#45;&gt;140645904528144</title>
<path fill="none" stroke="black" d="M430.8,-117.89C414.55,-108.14 388.57,-92.55 369.64,-81.19"/>
<polygon fill="black" stroke="black" points="371.37,-78.15 360.99,-76 367.76,-84.15 371.37,-78.15"/>
</g>
<!-- 140645904659888 -->
<g id="node22" class="node">
<title>140645904659888</title>
<polygon fill="lightblue" stroke="black" points="486.19,-212 407.78,-212 407.78,-180 486.19,-180 486.19,-212"/>
<text text-anchor="middle" x="446.99" y="-198.4" font-family="Times,serif" font-size="12.00">fc_hy.weight</text>
<text text-anchor="middle" x="446.99" y="-186.4" font-family="Times,serif" font-size="12.00"> (1, 10)</text>
</g>
<!-- 140645904659888&#45;&gt;140645904659600 -->
<g id="edge24" class="edge">
<title>140645904659888&#45;&gt;140645904659600</title>
<path fill="none" stroke="black" d="M446.76,-179.69C446.61,-170.4 446.43,-158.44 446.28,-148.47"/>
<polygon fill="black" stroke="black" points="449.78,-148.26 446.13,-138.32 442.78,-148.37 449.78,-148.26"/>
</g>
</g>
</svg>
