<?xml version="1.0" encoding="UTF-8" standalone="no"?>
<!DOCTYPE svg PUBLIC "-//W3C//DTD SVG 1.1//EN"
 "http://www.w3.org/Graphics/SVG/1.1/DTD/svg11.dtd">
<!-- Generated by graphviz version 2.42.3 (20191010.1750)
 -->
<!-- Title: %3 Pages: 1 -->
<svg width="206pt" height="534pt"
 viewBox="0.00 0.00 206.48 534.00" xmlns="http://www.w3.org/2000/svg" xmlns:xlink="http://www.w3.org/1999/xlink">
<g id="graph0" class="graph" transform="scale(1 1) rotate(0) translate(4 530)">
<title>%3</title>
<polygon fill="white" stroke="transparent" points="-4,4 -4,-530 202.48,-530 202.48,4 -4,4"/>
<!-- 140635893099312 -->
<g id="node1" class="node">
<title>140635893099312</title>
<polygon fill="#caff70" stroke="black" points="126.24,-30 72.24,-30 72.24,0 126.24,0 126.24,-30"/>
<text text-anchor="middle" x="99.24" y="-6" font-family="monospace" font-size="10.00"> ()</text>
</g>
<!-- 140635892678912 -->
<g id="node2" class="node">
<title>140635892678912</title>
<polygon fill="lightgrey" stroke="black" points="142.27,-84 56.21,-84 56.21,-66 142.27,-66 142.27,-84"/>
<text text-anchor="middle" x="99.24" y="-72" font-family="monospace" font-size="10.00">SumBackward0</text>
</g>
<!-- 140635892678912&#45;&gt;140635893099312 -->
<g id="edge13" class="edge">
<title>140635892678912&#45;&gt;140635893099312</title>
<path fill="none" stroke="black" d="M99.24,-65.94C99.24,-59.31 99.24,-49.57 99.24,-40.45"/>
<polygon fill="black" stroke="black" points="102.74,-40.24 99.24,-30.24 95.74,-40.24 102.74,-40.24"/>
</g>
<!-- 140635892680688 -->
<g id="node3" class="node">
<title>140635892680688</title>
<polygon fill="lightgrey" stroke="black" points="139.15,-138 59.33,-138 59.33,-120 139.15,-120 139.15,-138"/>
<text text-anchor="middle" x="99.24" y="-126" font-family="monospace" font-size="10.00">DivBackward0</text>
</g>
<!-- 140635892680688&#45;&gt;140635892678912 -->
<g id="edge1" class="edge">
<title>140635892680688&#45;&gt;140635892678912</title>
<path fill="none" stroke="black" d="M99.24,-119.88C99.24,-113.05 99.24,-103.03 99.24,-94.29"/>
<polygon fill="black" stroke="black" points="102.74,-94.24 99.24,-84.24 95.74,-94.24 102.74,-94.24"/>
</g>
<!-- 140635892679776 -->
<g id="node4" class="node">
<title>140635892679776</title>
<polygon fill="lightgrey" stroke="black" points="140.44,-246 58.04,-246 58.04,-228 140.44,-228 140.44,-246"/>
<text text-anchor="middle" x="99.24" y="-234" font-family="monospace" font-size="10.00">ExpBackward0</text>
</g>
<!-- 140635892679776&#45;&gt;140635892680688 -->
<g id="edge2" class="edge">
<title>140635892679776&#45;&gt;140635892680688</title>
<path fill="none" stroke="black" d="M95.28,-227.8C91.32,-219.14 85.52,-204.97 83.24,-192 80.56,-176.78 85.51,-159.8 90.59,-147.46"/>
<polygon fill="black" stroke="black" points="93.79,-148.89 94.73,-138.33 87.42,-146 93.79,-148.89"/>
</g>
<!-- 140635892679488 -->
<g id="node12" class="node">
<title>140635892679488</title>
<polygon fill="lightgrey" stroke="black" points="178.27,-192 92.21,-192 92.21,-174 178.27,-174 178.27,-192"/>
<text text-anchor="middle" x="135.24" y="-180" font-family="monospace" font-size="10.00">SumBackward1</text>
</g>
<!-- 140635892679776&#45;&gt;140635892679488 -->
<g id="edge12" class="edge">
<title>140635892679776&#45;&gt;140635892679488</title>
<path fill="none" stroke="black" d="M104.86,-227.88C109.91,-220.59 117.46,-209.68 123.77,-200.56"/>
<polygon fill="black" stroke="black" points="126.72,-202.45 129.53,-192.24 120.96,-198.47 126.72,-202.45"/>
</g>
<!-- 140635892680496 -->
<g id="node5" class="node">
<title>140635892680496</title>
<polygon fill="lightgrey" stroke="black" points="141,-300 57.48,-300 57.48,-282 141,-282 141,-300"/>
<text text-anchor="middle" x="99.24" y="-288" font-family="monospace" font-size="10.00">SubBackward0</text>
</g>
<!-- 140635892680496&#45;&gt;140635892679776 -->
<g id="edge3" class="edge">
<title>140635892680496&#45;&gt;140635892679776</title>
<path fill="none" stroke="black" d="M99.24,-281.88C99.24,-275.05 99.24,-265.03 99.24,-256.29"/>
<polygon fill="black" stroke="black" points="102.74,-256.24 99.24,-246.24 95.74,-256.24 102.74,-256.24"/>
</g>
<!-- 140635892681552 -->
<g id="node6" class="node">
<title>140635892681552</title>
<polygon fill="lightgrey" stroke="black" points="141,-408 57.48,-408 57.48,-390 141,-390 141,-408"/>
<text text-anchor="middle" x="99.24" y="-396" font-family="monospace" font-size="10.00">SubBackward0</text>
</g>
<!-- 140635892681552&#45;&gt;140635892680496 -->
<g id="edge4" class="edge">
<title>140635892681552&#45;&gt;140635892680496</title>
<path fill="none" stroke="black" d="M95.28,-389.8C91.32,-381.14 85.52,-366.97 83.24,-354 80.56,-338.78 85.51,-321.8 90.59,-309.46"/>
<polygon fill="black" stroke="black" points="93.79,-310.89 94.73,-300.33 87.42,-308 93.79,-310.89"/>
</g>
<!-- 140635892680544 -->
<g id="node11" class="node">
<title>140635892680544</title>
<polygon fill="lightgrey" stroke="black" points="176.6,-354 91.88,-354 91.88,-336 176.6,-336 176.6,-354"/>
<text text-anchor="middle" x="134.24" y="-342" font-family="monospace" font-size="10.00">MaxBackward0</text>
</g>
<!-- 140635892681552&#45;&gt;140635892680544 -->
<g id="edge10" class="edge">
<title>140635892681552&#45;&gt;140635892680544</title>
<path fill="none" stroke="black" d="M104.71,-389.88C109.61,-382.59 116.95,-371.68 123.09,-362.56"/>
<polygon fill="black" stroke="black" points="126.01,-364.49 128.69,-354.24 120.21,-360.58 126.01,-364.49"/>
</g>
<!-- 140635892682656 -->
<g id="node7" class="node">
<title>140635892682656</title>
<polygon fill="lightgrey" stroke="black" points="90.72,-462 -0.24,-462 -0.24,-444 90.72,-444 90.72,-462"/>
<text text-anchor="middle" x="45.24" y="-450" font-family="monospace" font-size="10.00">AccumulateGrad</text>
</g>
<!-- 140635892682656&#45;&gt;140635892681552 -->
<g id="edge5" class="edge">
<title>140635892682656&#45;&gt;140635892681552</title>
<path fill="none" stroke="black" d="M53.68,-443.88C61.56,-436.29 73.52,-424.76 83.22,-415.43"/>
<polygon fill="black" stroke="black" points="85.91,-417.7 90.68,-408.24 81.05,-412.65 85.91,-417.7"/>
</g>
<!-- 140635893098752 -->
<g id="node8" class="node">
<title>140635893098752</title>
<polygon fill="lightblue" stroke="black" points="72.24,-526 18.24,-526 18.24,-498 72.24,-498 72.24,-526"/>
<text text-anchor="middle" x="45.24" y="-514" font-family="monospace" font-size="10.00">z1</text>
<text text-anchor="middle" x="45.24" y="-504" font-family="monospace" font-size="10.00"> (4, 3)</text>
</g>
<!-- 140635893098752&#45;&gt;140635892682656 -->
<g id="edge6" class="edge">
<title>140635893098752&#45;&gt;140635892682656</title>
<path fill="none" stroke="black" d="M45.24,-497.78C45.24,-490.18 45.24,-480.53 45.24,-472.22"/>
<polygon fill="black" stroke="black" points="48.74,-472.05 45.24,-462.05 41.74,-472.05 48.74,-472.05"/>
</g>
<!-- 140635892682416 -->
<g id="node9" class="node">
<title>140635892682416</title>
<polygon fill="lightgrey" stroke="black" points="198.72,-462 107.76,-462 107.76,-444 198.72,-444 198.72,-462"/>
<text text-anchor="middle" x="153.24" y="-450" font-family="monospace" font-size="10.00">AccumulateGrad</text>
</g>
<!-- 140635892682416&#45;&gt;140635892681552 -->
<g id="edge7" class="edge">
<title>140635892682416&#45;&gt;140635892681552</title>
<path fill="none" stroke="black" d="M144.8,-443.88C136.92,-436.29 124.96,-424.76 115.26,-415.43"/>
<polygon fill="black" stroke="black" points="117.43,-412.65 107.8,-408.24 112.57,-417.7 117.43,-412.65"/>
</g>
<!-- 140635894507136 -->
<g id="node10" class="node">
<title>140635894507136</title>
<polygon fill="lightblue" stroke="black" points="180.24,-526 126.24,-526 126.24,-498 180.24,-498 180.24,-526"/>
<text text-anchor="middle" x="153.24" y="-514" font-family="monospace" font-size="10.00">z2</text>
<text text-anchor="middle" x="153.24" y="-504" font-family="monospace" font-size="10.00"> (1, 3)</text>
</g>
<!-- 140635894507136&#45;&gt;140635892682416 -->
<g id="edge8" class="edge">
<title>140635894507136&#45;&gt;140635892682416</title>
<path fill="none" stroke="black" d="M153.24,-497.78C153.24,-490.18 153.24,-480.53 153.24,-472.22"/>
<polygon fill="black" stroke="black" points="156.74,-472.05 153.24,-462.05 149.74,-472.05 156.74,-472.05"/>
</g>
<!-- 140635892680544&#45;&gt;140635892680496 -->
<g id="edge9" class="edge">
<title>140635892680544&#45;&gt;140635892680496</title>
<path fill="none" stroke="black" d="M128.77,-335.88C123.87,-328.59 116.52,-317.68 110.39,-308.56"/>
<polygon fill="black" stroke="black" points="113.27,-306.58 104.78,-300.24 107.46,-310.49 113.27,-306.58"/>
</g>
<!-- 140635892679488&#45;&gt;140635892680688 -->
<g id="edge11" class="edge">
<title>140635892679488&#45;&gt;140635892680688</title>
<path fill="none" stroke="black" d="M129.61,-173.88C124.57,-166.59 117.02,-155.68 110.7,-146.56"/>
<polygon fill="black" stroke="black" points="113.51,-144.47 104.94,-138.24 107.76,-148.45 113.51,-144.47"/>
</g>
</g>
</svg>
