<?xml version="1.0" encoding="UTF-8" standalone="no"?>
<!DOCTYPE svg PUBLIC "-//W3C//DTD SVG 1.1//EN"
 "http://www.w3.org/Graphics/SVG/1.1/DTD/svg11.dtd">
<!-- Generated by graphviz version 2.42.3 (20191010.1750)
 -->
<!-- Title: %3 Pages: 1 -->
<svg width="202pt" height="760pt"
 viewBox="0.00 0.00 202.48 760.00" xmlns="http://www.w3.org/2000/svg" xmlns:xlink="http://www.w3.org/1999/xlink">
<g id="graph0" class="graph" transform="scale(1 1) rotate(0) translate(4 756)">
<title>%3</title>
<polygon fill="white" stroke="transparent" points="-4,4 -4,-756 198.48,-756 198.48,4 -4,4"/>
<!-- 140635892802720 -->
<g id="node1" class="node">
<title>140635892802720</title>
<polygon fill="#caff70" stroke="black" points="124.24,-30 70.24,-30 70.24,0 124.24,0 124.24,-30"/>
<text text-anchor="middle" x="97.24" y="-6" font-family="monospace" font-size="10.00"> ()</text>
</g>
<!-- 140635227845392 -->
<g id="node2" class="node">
<title>140635227845392</title>
<polygon fill="lightgrey" stroke="black" points="140.27,-84 54.21,-84 54.21,-66 140.27,-66 140.27,-84"/>
<text text-anchor="middle" x="97.24" y="-72" font-family="monospace" font-size="10.00">SumBackward0</text>
</g>
<!-- 140635227845392&#45;&gt;140635892802720 -->
<g id="edge17" class="edge">
<title>140635227845392&#45;&gt;140635892802720</title>
<path fill="none" stroke="black" d="M97.24,-65.94C97.24,-59.31 97.24,-49.57 97.24,-40.45"/>
<polygon fill="black" stroke="black" points="100.74,-40.24 97.24,-30.24 93.74,-40.24 100.74,-40.24"/>
</g>
<!-- 140635227848080 -->
<g id="node3" class="node">
<title>140635227848080</title>
<polygon fill="lightgrey" stroke="black" points="137.82,-138 56.66,-138 56.66,-120 137.82,-120 137.82,-138"/>
<text text-anchor="middle" x="97.24" y="-126" font-family="monospace" font-size="10.00">MulBackward0</text>
</g>
<!-- 140635227848080&#45;&gt;140635227845392 -->
<g id="edge1" class="edge">
<title>140635227848080&#45;&gt;140635227845392</title>
<path fill="none" stroke="black" d="M97.24,-119.88C97.24,-113.05 97.24,-103.03 97.24,-94.29"/>
<polygon fill="black" stroke="black" points="100.74,-94.24 97.24,-84.24 93.74,-94.24 100.74,-94.24"/>
</g>
<!-- 140635228116640 -->
<g id="node4" class="node">
<title>140635228116640</title>
<polygon fill="lightgrey" stroke="black" points="138.39,-192 56.09,-192 56.09,-174 138.39,-174 138.39,-192"/>
<text text-anchor="middle" x="97.24" y="-180" font-family="monospace" font-size="10.00">LogBackward0</text>
</g>
<!-- 140635228116640&#45;&gt;140635227848080 -->
<g id="edge2" class="edge">
<title>140635228116640&#45;&gt;140635227848080</title>
<path fill="none" stroke="black" d="M97.24,-173.88C97.24,-167.05 97.24,-157.03 97.24,-148.29"/>
<polygon fill="black" stroke="black" points="100.74,-148.24 97.24,-138.24 93.74,-148.24 100.74,-148.24"/>
</g>
<!-- 140635228116304 -->
<g id="node5" class="node">
<title>140635228116304</title>
<polygon fill="lightgrey" stroke="black" points="139,-246 55.48,-246 55.48,-228 139,-228 139,-246"/>
<text text-anchor="middle" x="97.24" y="-234" font-family="monospace" font-size="10.00">AddBackward0</text>
</g>
<!-- 140635228116304&#45;&gt;140635228116640 -->
<g id="edge3" class="edge">
<title>140635228116304&#45;&gt;140635228116640</title>
<path fill="none" stroke="black" d="M97.24,-227.88C97.24,-221.05 97.24,-211.03 97.24,-202.29"/>
<polygon fill="black" stroke="black" points="100.74,-202.24 97.24,-192.24 93.74,-202.24 100.74,-202.24"/>
</g>
<!-- 140635228116880 -->
<g id="node6" class="node">
<title>140635228116880</title>
<polygon fill="lightgrey" stroke="black" points="137.15,-300 57.33,-300 57.33,-282 137.15,-282 137.15,-300"/>
<text text-anchor="middle" x="97.24" y="-288" font-family="monospace" font-size="10.00">DivBackward0</text>
</g>
<!-- 140635228116880&#45;&gt;140635228116304 -->
<g id="edge4" class="edge">
<title>140635228116880&#45;&gt;140635228116304</title>
<path fill="none" stroke="black" d="M97.24,-281.88C97.24,-275.05 97.24,-265.03 97.24,-256.29"/>
<polygon fill="black" stroke="black" points="100.74,-256.24 97.24,-246.24 93.74,-256.24 100.74,-256.24"/>
</g>
<!-- 140635228115584 -->
<g id="node7" class="node">
<title>140635228115584</title>
<polygon fill="lightgrey" stroke="black" points="138.44,-408 56.04,-408 56.04,-390 138.44,-390 138.44,-408"/>
<text text-anchor="middle" x="97.24" y="-396" font-family="monospace" font-size="10.00">ExpBackward0</text>
</g>
<!-- 140635228115584&#45;&gt;140635228116880 -->
<g id="edge5" class="edge">
<title>140635228115584&#45;&gt;140635228116880</title>
<path fill="none" stroke="black" d="M93.28,-389.8C89.32,-381.14 83.52,-366.97 81.24,-354 78.56,-338.78 83.51,-321.8 88.59,-309.46"/>
<polygon fill="black" stroke="black" points="91.79,-310.89 92.73,-300.33 85.42,-308 91.79,-310.89"/>
</g>
<!-- 140635228118752 -->
<g id="node16" class="node">
<title>140635228118752</title>
<polygon fill="lightgrey" stroke="black" points="176.27,-354 90.21,-354 90.21,-336 176.27,-336 176.27,-354"/>
<text text-anchor="middle" x="133.24" y="-342" font-family="monospace" font-size="10.00">SumBackward1</text>
</g>
<!-- 140635228115584&#45;&gt;140635228118752 -->
<g id="edge16" class="edge">
<title>140635228115584&#45;&gt;140635228118752</title>
<path fill="none" stroke="black" d="M102.86,-389.88C107.91,-382.59 115.46,-371.68 121.77,-362.56"/>
<polygon fill="black" stroke="black" points="124.72,-364.45 127.53,-354.24 118.96,-360.47 124.72,-364.45"/>
</g>
<!-- 140635228115536 -->
<g id="node8" class="node">
<title>140635228115536</title>
<polygon fill="lightgrey" stroke="black" points="139,-462 55.48,-462 55.48,-444 139,-444 139,-462"/>
<text text-anchor="middle" x="97.24" y="-450" font-family="monospace" font-size="10.00">SubBackward0</text>
</g>
<!-- 140635228115536&#45;&gt;140635228115584 -->
<g id="edge6" class="edge">
<title>140635228115536&#45;&gt;140635228115584</title>
<path fill="none" stroke="black" d="M97.24,-443.88C97.24,-437.05 97.24,-427.03 97.24,-418.29"/>
<polygon fill="black" stroke="black" points="100.74,-418.24 97.24,-408.24 93.74,-418.24 100.74,-418.24"/>
</g>
<!-- 140635228115776 -->
<g id="node9" class="node">
<title>140635228115776</title>
<polygon fill="lightgrey" stroke="black" points="139,-570 55.48,-570 55.48,-552 139,-552 139,-570"/>
<text text-anchor="middle" x="97.24" y="-558" font-family="monospace" font-size="10.00">AddBackward0</text>
</g>
<!-- 140635228115776&#45;&gt;140635228115536 -->
<g id="edge7" class="edge">
<title>140635228115776&#45;&gt;140635228115536</title>
<path fill="none" stroke="black" d="M93.28,-551.8C89.32,-543.14 83.52,-528.97 81.24,-516 78.56,-500.78 83.51,-483.8 88.59,-471.46"/>
<polygon fill="black" stroke="black" points="91.79,-472.89 92.73,-462.33 85.42,-470 91.79,-472.89"/>
</g>
<!-- 140635228116208 -->
<g id="node15" class="node">
<title>140635228116208</title>
<polygon fill="lightgrey" stroke="black" points="174.6,-516 89.88,-516 89.88,-498 174.6,-498 174.6,-516"/>
<text text-anchor="middle" x="132.24" y="-504" font-family="monospace" font-size="10.00">MaxBackward0</text>
</g>
<!-- 140635228115776&#45;&gt;140635228116208 -->
<g id="edge14" class="edge">
<title>140635228115776&#45;&gt;140635228116208</title>
<path fill="none" stroke="black" d="M102.71,-551.88C107.61,-544.59 114.95,-533.68 121.09,-524.56"/>
<polygon fill="black" stroke="black" points="124.01,-526.49 126.69,-516.24 118.21,-522.58 124.01,-526.49"/>
</g>
<!-- 140635228118320 -->
<g id="node10" class="node">
<title>140635228118320</title>
<polygon fill="lightgrey" stroke="black" points="86.37,-624 4.11,-624 4.11,-606 86.37,-606 86.37,-624"/>
<text text-anchor="middle" x="45.24" y="-612" font-family="monospace" font-size="10.00">MmBackward0</text>
</g>
<!-- 140635228118320&#45;&gt;140635228115776 -->
<g id="edge8" class="edge">
<title>140635228118320&#45;&gt;140635228115776</title>
<path fill="none" stroke="black" d="M53.36,-605.88C60.95,-598.29 72.47,-586.76 81.81,-577.43"/>
<polygon fill="black" stroke="black" points="84.4,-579.79 89,-570.24 79.45,-574.84 84.4,-579.79"/>
</g>
<!-- 140635228115008 -->
<g id="node11" class="node">
<title>140635228115008</title>
<polygon fill="lightgrey" stroke="black" points="90.72,-683 -0.24,-683 -0.24,-665 90.72,-665 90.72,-683"/>
<text text-anchor="middle" x="45.24" y="-671" font-family="monospace" font-size="10.00">AccumulateGrad</text>
</g>
<!-- 140635228115008&#45;&gt;140635228118320 -->
<g id="edge9" class="edge">
<title>140635228115008&#45;&gt;140635228118320</title>
<path fill="none" stroke="black" d="M45.24,-664.59C45.24,-656.67 45.24,-644.54 45.24,-634.38"/>
<polygon fill="black" stroke="black" points="48.74,-634.08 45.24,-624.08 41.74,-634.08 48.74,-634.08"/>
</g>
<!-- 140635694856368 -->
<g id="node12" class="node">
<title>140635694856368</title>
<polygon fill="lightblue" stroke="black" points="74.54,-752 15.94,-752 15.94,-724 74.54,-724 74.54,-752"/>
<text text-anchor="middle" x="45.24" y="-740" font-family="monospace" font-size="10.00">W</text>
<text text-anchor="middle" x="45.24" y="-730" font-family="monospace" font-size="10.00"> (784, 10)</text>
</g>
<!-- 140635694856368&#45;&gt;140635228115008 -->
<g id="edge10" class="edge">
<title>140635694856368&#45;&gt;140635228115008</title>
<path fill="none" stroke="black" d="M45.24,-723.85C45.24,-714.96 45.24,-703.1 45.24,-693.29"/>
<polygon fill="black" stroke="black" points="48.74,-693.02 45.24,-683.02 41.74,-693.02 48.74,-693.02"/>
</g>
<!-- 140635228115248 -->
<g id="node13" class="node">
<title>140635228115248</title>
<polygon fill="lightgrey" stroke="black" points="194.72,-624 103.76,-624 103.76,-606 194.72,-606 194.72,-624"/>
<text text-anchor="middle" x="149.24" y="-612" font-family="monospace" font-size="10.00">AccumulateGrad</text>
</g>
<!-- 140635228115248&#45;&gt;140635228115776 -->
<g id="edge11" class="edge">
<title>140635228115248&#45;&gt;140635228115776</title>
<path fill="none" stroke="black" d="M141.11,-605.88C133.53,-598.29 122,-586.76 112.67,-577.43"/>
<polygon fill="black" stroke="black" points="115.02,-574.84 105.48,-570.24 110.07,-579.79 115.02,-574.84"/>
</g>
<!-- 140635892802080 -->
<g id="node14" class="node">
<title>140635892802080</title>
<polygon fill="lightblue" stroke="black" points="176.24,-688 122.24,-688 122.24,-660 176.24,-660 176.24,-688"/>
<text text-anchor="middle" x="149.24" y="-676" font-family="monospace" font-size="10.00">b</text>
<text text-anchor="middle" x="149.24" y="-666" font-family="monospace" font-size="10.00"> (10)</text>
</g>
<!-- 140635892802080&#45;&gt;140635228115248 -->
<g id="edge12" class="edge">
<title>140635892802080&#45;&gt;140635228115248</title>
<path fill="none" stroke="black" d="M149.24,-659.78C149.24,-652.18 149.24,-642.53 149.24,-634.22"/>
<polygon fill="black" stroke="black" points="152.74,-634.05 149.24,-624.05 145.74,-634.05 152.74,-634.05"/>
</g>
<!-- 140635228116208&#45;&gt;140635228115536 -->
<g id="edge13" class="edge">
<title>140635228116208&#45;&gt;140635228115536</title>
<path fill="none" stroke="black" d="M126.77,-497.88C121.87,-490.59 114.52,-479.68 108.39,-470.56"/>
<polygon fill="black" stroke="black" points="111.27,-468.58 102.78,-462.24 105.46,-472.49 111.27,-468.58"/>
</g>
<!-- 140635228118752&#45;&gt;140635228116880 -->
<g id="edge15" class="edge">
<title>140635228118752&#45;&gt;140635228116880</title>
<path fill="none" stroke="black" d="M127.61,-335.88C122.57,-328.59 115.02,-317.68 108.7,-308.56"/>
<polygon fill="black" stroke="black" points="111.51,-306.47 102.94,-300.24 105.76,-310.45 111.51,-306.47"/>
</g>
</g>
</svg>
