<?xml version="1.0" encoding="UTF-8" standalone="no"?>
<!DOCTYPE svg PUBLIC "-//W3C//DTD SVG 1.1//EN"
 "http://www.w3.org/Graphics/SVG/1.1/DTD/svg11.dtd">
<!-- Generated by graphviz version 2.42.3 (20191010.1750)
 -->
<!-- Title: %3 Pages: 1 -->
<svg width="348pt" height="764pt"
 viewBox="0.00 0.00 347.97 764.00" xmlns="http://www.w3.org/2000/svg" xmlns:xlink="http://www.w3.org/1999/xlink">
<g id="graph0" class="graph" transform="scale(1 1) rotate(0) translate(4 760)">
<title>%3</title>
<polygon fill="white" stroke="transparent" points="-4,4 -4,-760 343.97,-760 343.97,4 -4,4"/>
<!-- 140667827188400 -->
<g id="node1" class="node">
<title>140667827188400</title>
<polygon fill="#caff70" stroke="black" points="233.79,-20 109.51,-20 109.51,0 233.79,0 233.79,-20"/>
<text text-anchor="middle" x="171.65" y="-6.4" font-family="Times,serif" font-size="12.00">LogSoftmaxBackward</text>
</g>
<!-- 140667827188304 -->
<g id="node2" class="node">
<title>140667827188304</title>
<polygon fill="lightgrey" stroke="black" points="223.63,-76 119.67,-76 119.67,-56 223.63,-56 223.63,-76"/>
<text text-anchor="middle" x="171.65" y="-62.4" font-family="Times,serif" font-size="12.00">AddmmBackward</text>
</g>
<!-- 140667827188304&#45;&gt;140667827188400 -->
<g id="edge1" class="edge">
<title>140667827188304&#45;&gt;140667827188400</title>
<path fill="none" stroke="black" d="M171.65,-55.59C171.65,-48.7 171.65,-39.1 171.65,-30.57"/>
<polygon fill="black" stroke="black" points="175.15,-30.3 171.65,-20.3 168.15,-30.3 175.15,-30.3"/>
</g>
<!-- 140667827188496 -->
<g id="node3" class="node">
<title>140667827188496</title>
<polygon fill="lightblue" stroke="black" points="109.46,-144 17.85,-144 17.85,-112 109.46,-112 109.46,-144"/>
<text text-anchor="middle" x="63.65" y="-130.4" font-family="Times,serif" font-size="12.00">fc_layers.8.bias</text>
<text text-anchor="middle" x="63.65" y="-118.4" font-family="Times,serif" font-size="12.00"> (10)</text>
</g>
<!-- 140667827188496&#45;&gt;140667827188304 -->
<g id="edge2" class="edge">
<title>140667827188496&#45;&gt;140667827188304</title>
<path fill="none" stroke="black" d="M90.91,-111.86C107.83,-102.46 129.44,-90.45 146.05,-81.22"/>
<polygon fill="black" stroke="black" points="148.13,-84.07 155.18,-76.15 144.73,-77.95 148.13,-84.07"/>
</g>
<!-- 140667827187776 -->
<g id="node4" class="node">
<title>140667827187776</title>
<polygon fill="lightgrey" stroke="black" points="216.12,-138 127.19,-138 127.19,-118 216.12,-118 216.12,-138"/>
<text text-anchor="middle" x="171.65" y="-124.4" font-family="Times,serif" font-size="12.00">TanhBackward</text>
</g>
<!-- 140667827187776&#45;&gt;140667827188304 -->
<g id="edge3" class="edge">
<title>140667827187776&#45;&gt;140667827188304</title>
<path fill="none" stroke="black" d="M171.65,-117.89C171.65,-109.52 171.65,-96.84 171.65,-86.23"/>
<polygon fill="black" stroke="black" points="175.15,-86.2 171.65,-76.2 168.15,-86.2 175.15,-86.2"/>
</g>
<!-- 140667827191568 -->
<g id="node5" class="node">
<title>140667827191568</title>
<polygon fill="lightgrey" stroke="black" points="217.63,-206 113.67,-206 113.67,-186 217.63,-186 217.63,-206"/>
<text text-anchor="middle" x="165.65" y="-192.4" font-family="Times,serif" font-size="12.00">AddmmBackward</text>
</g>
<!-- 140667827191568&#45;&gt;140667827187776 -->
<g id="edge4" class="edge">
<title>140667827191568&#45;&gt;140667827187776</title>
<path fill="none" stroke="black" d="M166.49,-185.82C167.36,-176.17 168.77,-160.69 169.9,-148.32"/>
<polygon fill="black" stroke="black" points="173.41,-148.37 170.83,-138.1 166.43,-147.74 173.41,-148.37"/>
</g>
<!-- 140667827188448 -->
<g id="node6" class="node">
<title>140667827188448</title>
<polygon fill="lightblue" stroke="black" points="103.46,-280 11.85,-280 11.85,-248 103.46,-248 103.46,-280"/>
<text text-anchor="middle" x="57.65" y="-266.4" font-family="Times,serif" font-size="12.00">fc_layers.6.bias</text>
<text text-anchor="middle" x="57.65" y="-254.4" font-family="Times,serif" font-size="12.00"> (64)</text>
</g>
<!-- 140667827188448&#45;&gt;140667827191568 -->
<g id="edge5" class="edge">
<title>140667827188448&#45;&gt;140667827191568</title>
<path fill="none" stroke="black" d="M82.43,-247.86C100.35,-236.9 124.43,-222.19 142.07,-211.41"/>
<polygon fill="black" stroke="black" points="143.94,-214.37 150.64,-206.17 140.29,-208.4 143.94,-214.37"/>
</g>
<!-- 140667827187872 -->
<g id="node7" class="node">
<title>140667827187872</title>
<polygon fill="lightgrey" stroke="black" points="210.12,-274 121.19,-274 121.19,-254 210.12,-254 210.12,-274"/>
<text text-anchor="middle" x="165.65" y="-260.4" font-family="Times,serif" font-size="12.00">TanhBackward</text>
</g>
<!-- 140667827187872&#45;&gt;140667827191568 -->
<g id="edge6" class="edge">
<title>140667827187872&#45;&gt;140667827191568</title>
<path fill="none" stroke="black" d="M165.65,-253.82C165.65,-244.17 165.65,-228.69 165.65,-216.32"/>
<polygon fill="black" stroke="black" points="169.15,-216.1 165.65,-206.1 162.15,-216.1 169.15,-216.1"/>
</g>
<!-- 140667827190176 -->
<g id="node8" class="node">
<title>140667827190176</title>
<polygon fill="lightgrey" stroke="black" points="211.63,-342 107.67,-342 107.67,-322 211.63,-322 211.63,-342"/>
<text text-anchor="middle" x="159.65" y="-328.4" font-family="Times,serif" font-size="12.00">AddmmBackward</text>
</g>
<!-- 140667827190176&#45;&gt;140667827187872 -->
<g id="edge7" class="edge">
<title>140667827190176&#45;&gt;140667827187872</title>
<path fill="none" stroke="black" d="M160.49,-321.82C161.36,-312.17 162.77,-296.69 163.9,-284.32"/>
<polygon fill="black" stroke="black" points="167.41,-284.37 164.83,-274.1 160.43,-283.74 167.41,-284.37"/>
</g>
<!-- 140667827189936 -->
<g id="node9" class="node">
<title>140667827189936</title>
<polygon fill="lightblue" stroke="black" points="97.46,-416 5.85,-416 5.85,-384 97.46,-384 97.46,-416"/>
<text text-anchor="middle" x="51.65" y="-402.4" font-family="Times,serif" font-size="12.00">fc_layers.4.bias</text>
<text text-anchor="middle" x="51.65" y="-390.4" font-family="Times,serif" font-size="12.00"> (128)</text>
</g>
<!-- 140667827189936&#45;&gt;140667827190176 -->
<g id="edge8" class="edge">
<title>140667827189936&#45;&gt;140667827190176</title>
<path fill="none" stroke="black" d="M76.43,-383.86C94.35,-372.9 118.43,-358.19 136.07,-347.41"/>
<polygon fill="black" stroke="black" points="137.94,-350.37 144.64,-342.17 134.29,-344.4 137.94,-350.37"/>
</g>
<!-- 140667827191184 -->
<g id="node10" class="node">
<title>140667827191184</title>
<polygon fill="lightgrey" stroke="black" points="204.12,-410 115.19,-410 115.19,-390 204.12,-390 204.12,-410"/>
<text text-anchor="middle" x="159.65" y="-396.4" font-family="Times,serif" font-size="12.00">TanhBackward</text>
</g>
<!-- 140667827191184&#45;&gt;140667827190176 -->
<g id="edge9" class="edge">
<title>140667827191184&#45;&gt;140667827190176</title>
<path fill="none" stroke="black" d="M159.65,-389.82C159.65,-380.17 159.65,-364.69 159.65,-352.32"/>
<polygon fill="black" stroke="black" points="163.15,-352.1 159.65,-342.1 156.15,-352.1 163.15,-352.1"/>
</g>
<!-- 140667827188208 -->
<g id="node11" class="node">
<title>140667827188208</title>
<polygon fill="lightgrey" stroke="black" points="205.63,-478 101.67,-478 101.67,-458 205.63,-458 205.63,-478"/>
<text text-anchor="middle" x="153.65" y="-464.4" font-family="Times,serif" font-size="12.00">AddmmBackward</text>
</g>
<!-- 140667827188208&#45;&gt;140667827191184 -->
<g id="edge10" class="edge">
<title>140667827188208&#45;&gt;140667827191184</title>
<path fill="none" stroke="black" d="M154.49,-457.82C155.36,-448.17 156.77,-432.69 157.9,-420.32"/>
<polygon fill="black" stroke="black" points="161.41,-420.37 158.83,-410.1 154.43,-419.74 161.41,-420.37"/>
</g>
<!-- 140667827191136 -->
<g id="node12" class="node">
<title>140667827191136</title>
<polygon fill="lightblue" stroke="black" points="91.46,-552 -0.15,-552 -0.15,-520 91.46,-520 91.46,-552"/>
<text text-anchor="middle" x="45.65" y="-538.4" font-family="Times,serif" font-size="12.00">fc_layers.2.bias</text>
<text text-anchor="middle" x="45.65" y="-526.4" font-family="Times,serif" font-size="12.00"> (64)</text>
</g>
<!-- 140667827191136&#45;&gt;140667827188208 -->
<g id="edge11" class="edge">
<title>140667827191136&#45;&gt;140667827188208</title>
<path fill="none" stroke="black" d="M70.43,-519.86C88.35,-508.9 112.43,-494.19 130.07,-483.41"/>
<polygon fill="black" stroke="black" points="131.94,-486.37 138.64,-478.17 128.29,-480.4 131.94,-486.37"/>
</g>
<!-- 140667827190464 -->
<g id="node13" class="node">
<title>140667827190464</title>
<polygon fill="lightgrey" stroke="black" points="198.12,-546 109.19,-546 109.19,-526 198.12,-526 198.12,-546"/>
<text text-anchor="middle" x="153.65" y="-532.4" font-family="Times,serif" font-size="12.00">TanhBackward</text>
</g>
<!-- 140667827190464&#45;&gt;140667827188208 -->
<g id="edge12" class="edge">
<title>140667827190464&#45;&gt;140667827188208</title>
<path fill="none" stroke="black" d="M153.65,-525.82C153.65,-516.17 153.65,-500.69 153.65,-488.32"/>
<polygon fill="black" stroke="black" points="157.15,-488.1 153.65,-478.1 150.15,-488.1 157.15,-488.1"/>
</g>
<!-- 140667827190896 -->
<g id="node14" class="node">
<title>140667827190896</title>
<polygon fill="lightgrey" stroke="black" points="199.63,-614 95.67,-614 95.67,-594 199.63,-594 199.63,-614"/>
<text text-anchor="middle" x="147.65" y="-600.4" font-family="Times,serif" font-size="12.00">AddmmBackward</text>
</g>
<!-- 140667827190896&#45;&gt;140667827190464 -->
<g id="edge13" class="edge">
<title>140667827190896&#45;&gt;140667827190464</title>
<path fill="none" stroke="black" d="M148.49,-593.82C149.36,-584.17 150.77,-568.69 151.9,-556.32"/>
<polygon fill="black" stroke="black" points="155.41,-556.37 152.83,-546.1 148.43,-555.74 155.41,-556.37"/>
</g>
<!-- 140667828675632 -->
<g id="node15" class="node">
<title>140667828675632</title>
<polygon fill="lightblue" stroke="black" points="143.46,-688 51.85,-688 51.85,-656 143.46,-656 143.46,-688"/>
<text text-anchor="middle" x="97.65" y="-674.4" font-family="Times,serif" font-size="12.00">fc_layers.0.bias</text>
<text text-anchor="middle" x="97.65" y="-662.4" font-family="Times,serif" font-size="12.00"> (32)</text>
</g>
<!-- 140667828675632&#45;&gt;140667827190896 -->
<g id="edge14" class="edge">
<title>140667828675632&#45;&gt;140667827190896</title>
<path fill="none" stroke="black" d="M109.25,-655.69C116.75,-645.8 126.53,-632.89 134.34,-622.57"/>
<polygon fill="black" stroke="black" points="137.35,-624.4 140.59,-614.32 131.77,-620.17 137.35,-624.4"/>
</g>
<!-- 140667828677552 -->
<g id="node16" class="node">
<title>140667828677552</title>
<polygon fill="lightgrey" stroke="black" points="233.63,-682 161.68,-682 161.68,-662 233.63,-662 233.63,-682"/>
<text text-anchor="middle" x="197.65" y="-668.4" font-family="Times,serif" font-size="12.00">TBackward</text>
</g>
<!-- 140667828677552&#45;&gt;140667827190896 -->
<g id="edge15" class="edge">
<title>140667828677552&#45;&gt;140667827190896</title>
<path fill="none" stroke="black" d="M190.7,-661.82C182.94,-651.58 170.21,-634.77 160.6,-622.09"/>
<polygon fill="black" stroke="black" points="163.37,-619.96 154.55,-614.1 157.79,-624.18 163.37,-619.96"/>
</g>
<!-- 140667828676112 -->
<g id="node17" class="node">
<title>140667828676112</title>
<polygon fill="lightblue" stroke="black" points="249.79,-756 145.52,-756 145.52,-724 249.79,-724 249.79,-756"/>
<text text-anchor="middle" x="197.65" y="-742.4" font-family="Times,serif" font-size="12.00">fc_layers.0.weight</text>
<text text-anchor="middle" x="197.65" y="-730.4" font-family="Times,serif" font-size="12.00"> (32, 784)</text>
</g>
<!-- 140667828676112&#45;&gt;140667828677552 -->
<g id="edge16" class="edge">
<title>140667828676112&#45;&gt;140667828677552</title>
<path fill="none" stroke="black" d="M197.65,-723.69C197.65,-714.4 197.65,-702.44 197.65,-692.47"/>
<polygon fill="black" stroke="black" points="201.15,-692.32 197.65,-682.32 194.15,-692.32 201.15,-692.32"/>
</g>
<!-- 140667827191520 -->
<g id="node18" class="node">
<title>140667827191520</title>
<polygon fill="lightgrey" stroke="black" points="299.63,-546 227.68,-546 227.68,-526 299.63,-526 299.63,-546"/>
<text text-anchor="middle" x="263.65" y="-532.4" font-family="Times,serif" font-size="12.00">TBackward</text>
</g>
<!-- 140667827191520&#45;&gt;140667827188208 -->
<g id="edge17" class="edge">
<title>140667827191520&#45;&gt;140667827188208</title>
<path fill="none" stroke="black" d="M248.36,-525.82C230.05,-514.84 199.18,-496.32 177.68,-483.41"/>
<polygon fill="black" stroke="black" points="179.19,-480.24 168.82,-478.1 175.59,-486.25 179.19,-480.24"/>
</g>
<!-- 140667827189216 -->
<g id="node19" class="node">
<title>140667827189216</title>
<polygon fill="lightblue" stroke="black" points="321.79,-620 217.52,-620 217.52,-588 321.79,-588 321.79,-620"/>
<text text-anchor="middle" x="269.65" y="-606.4" font-family="Times,serif" font-size="12.00">fc_layers.2.weight</text>
<text text-anchor="middle" x="269.65" y="-594.4" font-family="Times,serif" font-size="12.00"> (64, 32)</text>
</g>
<!-- 140667827189216&#45;&gt;140667827191520 -->
<g id="edge18" class="edge">
<title>140667827189216&#45;&gt;140667827191520</title>
<path fill="none" stroke="black" d="M268.26,-587.69C267.42,-578.4 266.33,-566.44 265.42,-556.47"/>
<polygon fill="black" stroke="black" points="268.89,-555.96 264.5,-546.32 261.92,-556.59 268.89,-555.96"/>
</g>
<!-- 140667827188016 -->
<g id="node20" class="node">
<title>140667827188016</title>
<polygon fill="lightgrey" stroke="black" points="305.63,-410 233.68,-410 233.68,-390 305.63,-390 305.63,-410"/>
<text text-anchor="middle" x="269.65" y="-396.4" font-family="Times,serif" font-size="12.00">TBackward</text>
</g>
<!-- 140667827188016&#45;&gt;140667827190176 -->
<g id="edge19" class="edge">
<title>140667827188016&#45;&gt;140667827190176</title>
<path fill="none" stroke="black" d="M254.36,-389.82C236.05,-378.84 205.18,-360.32 183.68,-347.41"/>
<polygon fill="black" stroke="black" points="185.19,-344.24 174.82,-342.1 181.59,-350.25 185.19,-344.24"/>
</g>
<!-- 140667827188160 -->
<g id="node21" class="node">
<title>140667827188160</title>
<polygon fill="lightblue" stroke="black" points="327.79,-484 223.52,-484 223.52,-452 327.79,-452 327.79,-484"/>
<text text-anchor="middle" x="275.65" y="-470.4" font-family="Times,serif" font-size="12.00">fc_layers.4.weight</text>
<text text-anchor="middle" x="275.65" y="-458.4" font-family="Times,serif" font-size="12.00"> (128, 64)</text>
</g>
<!-- 140667827188160&#45;&gt;140667827188016 -->
<g id="edge20" class="edge">
<title>140667827188160&#45;&gt;140667827188016</title>
<path fill="none" stroke="black" d="M274.26,-451.69C273.42,-442.4 272.33,-430.44 271.42,-420.47"/>
<polygon fill="black" stroke="black" points="274.89,-419.96 270.5,-410.32 267.92,-420.59 274.89,-419.96"/>
</g>
<!-- 140667827189792 -->
<g id="node22" class="node">
<title>140667827189792</title>
<polygon fill="lightgrey" stroke="black" points="311.63,-274 239.68,-274 239.68,-254 311.63,-254 311.63,-274"/>
<text text-anchor="middle" x="275.65" y="-260.4" font-family="Times,serif" font-size="12.00">TBackward</text>
</g>
<!-- 140667827189792&#45;&gt;140667827191568 -->
<g id="edge21" class="edge">
<title>140667827189792&#45;&gt;140667827191568</title>
<path fill="none" stroke="black" d="M260.36,-253.82C242.05,-242.84 211.18,-224.32 189.68,-211.41"/>
<polygon fill="black" stroke="black" points="191.19,-208.24 180.82,-206.1 187.59,-214.25 191.19,-208.24"/>
</g>
<!-- 140667827188832 -->
<g id="node23" class="node">
<title>140667827188832</title>
<polygon fill="lightblue" stroke="black" points="333.79,-348 229.52,-348 229.52,-316 333.79,-316 333.79,-348"/>
<text text-anchor="middle" x="281.65" y="-334.4" font-family="Times,serif" font-size="12.00">fc_layers.6.weight</text>
<text text-anchor="middle" x="281.65" y="-322.4" font-family="Times,serif" font-size="12.00"> (64, 128)</text>
</g>
<!-- 140667827188832&#45;&gt;140667827189792 -->
<g id="edge22" class="edge">
<title>140667827188832&#45;&gt;140667827189792</title>
<path fill="none" stroke="black" d="M280.26,-315.69C279.42,-306.4 278.33,-294.44 277.42,-284.47"/>
<polygon fill="black" stroke="black" points="280.89,-283.96 276.5,-274.32 273.92,-284.59 280.89,-283.96"/>
</g>
<!-- 140667827188688 -->
<g id="node24" class="node">
<title>140667827188688</title>
<polygon fill="lightgrey" stroke="black" points="317.63,-138 245.68,-138 245.68,-118 317.63,-118 317.63,-138"/>
<text text-anchor="middle" x="281.65" y="-124.4" font-family="Times,serif" font-size="12.00">TBackward</text>
</g>
<!-- 140667827188688&#45;&gt;140667827188304 -->
<g id="edge23" class="edge">
<title>140667827188688&#45;&gt;140667827188304</title>
<path fill="none" stroke="black" d="M264.95,-117.89C246.91,-108.05 217.98,-92.27 197.11,-80.88"/>
<polygon fill="black" stroke="black" points="198.61,-77.72 188.16,-76 195.26,-83.86 198.61,-77.72"/>
</g>
<!-- 140667827189888 -->
<g id="node25" class="node">
<title>140667827189888</title>
<polygon fill="lightblue" stroke="black" points="339.79,-212 235.52,-212 235.52,-180 339.79,-180 339.79,-212"/>
<text text-anchor="middle" x="287.65" y="-198.4" font-family="Times,serif" font-size="12.00">fc_layers.8.weight</text>
<text text-anchor="middle" x="287.65" y="-186.4" font-family="Times,serif" font-size="12.00"> (10, 64)</text>
</g>
<!-- 140667827189888&#45;&gt;140667827188688 -->
<g id="edge24" class="edge">
<title>140667827189888&#45;&gt;140667827188688</title>
<path fill="none" stroke="black" d="M286.26,-179.69C285.42,-170.4 284.33,-158.44 283.42,-148.47"/>
<polygon fill="black" stroke="black" points="286.89,-147.96 282.5,-138.32 279.92,-148.59 286.89,-147.96"/>
</g>
</g>
</svg>
