<?xml version="1.0" encoding="UTF-8" standalone="no"?>
<!DOCTYPE svg PUBLIC "-//W3C//DTD SVG 1.1//EN"
 "http://www.w3.org/Graphics/SVG/1.1/DTD/svg11.dtd">
<!-- Generated by graphviz version 2.42.3 (20191010.1750)
 -->
<!-- Title: %3 Pages: 1 -->
<svg width="472pt" height="642pt"
 viewBox="0.00 0.00 472.48 642.00" xmlns="http://www.w3.org/2000/svg" xmlns:xlink="http://www.w3.org/1999/xlink">
<g id="graph0" class="graph" transform="scale(1 1) rotate(0) translate(4 638)">
<title>%3</title>
<polygon fill="white" stroke="transparent" points="-4,4 -4,-638 468.48,-638 468.48,4 -4,4"/>
<!-- 140237544880944 -->
<g id="node1" class="node">
<title>140237544880944</title>
<polygon fill="#caff70" stroke="black" points="318.24,-30 264.24,-30 264.24,0 318.24,0 318.24,-30"/>
<text text-anchor="middle" x="291.24" y="-6" font-family="monospace" font-size="10.00"> ()</text>
</g>
<!-- 140237318447840 -->
<g id="node2" class="node">
<title>140237318447840</title>
<polygon fill="lightgrey" stroke="black" points="336.72,-84 245.76,-84 245.76,-66 336.72,-66 336.72,-84"/>
<text text-anchor="middle" x="291.24" y="-72" font-family="monospace" font-size="10.00">MeanBackward0</text>
</g>
<!-- 140237318447840&#45;&gt;140237544880944 -->
<g id="edge26" class="edge">
<title>140237318447840&#45;&gt;140237544880944</title>
<path fill="none" stroke="black" d="M291.24,-65.94C291.24,-59.31 291.24,-49.57 291.24,-40.45"/>
<polygon fill="black" stroke="black" points="294.74,-40.24 291.24,-30.24 287.74,-40.24 294.74,-40.24"/>
</g>
<!-- 140237318448320 -->
<g id="node3" class="node">
<title>140237318448320</title>
<polygon fill="lightgrey" stroke="black" points="342.39,-138 240.09,-138 240.09,-120 342.39,-120 342.39,-138"/>
<text text-anchor="middle" x="291.24" y="-126" font-family="monospace" font-size="10.00">SoftmaxBackward0</text>
</g>
<!-- 140237318448320&#45;&gt;140237318447840 -->
<g id="edge1" class="edge">
<title>140237318448320&#45;&gt;140237318447840</title>
<path fill="none" stroke="black" d="M291.24,-119.88C291.24,-113.05 291.24,-103.03 291.24,-94.29"/>
<polygon fill="black" stroke="black" points="294.74,-94.24 291.24,-84.24 287.74,-94.24 294.74,-94.24"/>
</g>
<!-- 140237318448032 -->
<g id="node4" class="node">
<title>140237318448032</title>
<polygon fill="lightgrey" stroke="black" points="341.16,-192 241.32,-192 241.32,-174 341.16,-174 341.16,-192"/>
<text text-anchor="middle" x="291.24" y="-180" font-family="monospace" font-size="10.00">AddmmBackward0</text>
</g>
<!-- 140237318448032&#45;&gt;140237318448320 -->
<g id="edge2" class="edge">
<title>140237318448032&#45;&gt;140237318448320</title>
<path fill="none" stroke="black" d="M291.24,-173.88C291.24,-167.05 291.24,-157.03 291.24,-148.29"/>
<polygon fill="black" stroke="black" points="294.74,-148.24 291.24,-138.24 287.74,-148.24 294.74,-148.24"/>
</g>
<!-- 140237318448560 -->
<g id="node5" class="node">
<title>140237318448560</title>
<polygon fill="lightgrey" stroke="black" points="199.72,-246 108.76,-246 108.76,-228 199.72,-228 199.72,-246"/>
<text text-anchor="middle" x="154.24" y="-234" font-family="monospace" font-size="10.00">AccumulateGrad</text>
</g>
<!-- 140237318448560&#45;&gt;140237318448032 -->
<g id="edge3" class="edge">
<title>140237318448560&#45;&gt;140237318448032</title>
<path fill="none" stroke="black" d="M175.34,-227.99C198.11,-219.35 234.56,-205.51 260.51,-195.67"/>
<polygon fill="black" stroke="black" points="261.78,-198.93 269.88,-192.11 259.29,-192.38 261.78,-198.93"/>
</g>
<!-- 140237318460176 -->
<g id="node6" class="node">
<title>140237318460176</title>
<polygon fill="lightblue" stroke="black" points="154.24,-311 100.24,-311 100.24,-283 154.24,-283 154.24,-311"/>
<text text-anchor="middle" x="127.24" y="-299" font-family="monospace" font-size="10.00">4.bias</text>
<text text-anchor="middle" x="127.24" y="-289" font-family="monospace" font-size="10.00"> (10)</text>
</g>
<!-- 140237318460176&#45;&gt;140237318448560 -->
<g id="edge4" class="edge">
<title>140237318460176&#45;&gt;140237318448560</title>
<path fill="none" stroke="black" d="M133.37,-282.84C137.12,-274.77 141.98,-264.33 146.06,-255.56"/>
<polygon fill="black" stroke="black" points="149.34,-256.81 150.39,-246.27 142.99,-253.86 149.34,-256.81"/>
</g>
<!-- 140237317922320 -->
<g id="node7" class="node">
<title>140237317922320</title>
<polygon fill="lightgrey" stroke="black" points="349.95,-246 232.52,-246 232.52,-228 349.95,-228 349.95,-246"/>
<text text-anchor="middle" x="291.24" y="-234" font-family="monospace" font-size="10.00">ELUFunctionBackward</text>
</g>
<!-- 140237317922320&#45;&gt;140237318448032 -->
<g id="edge5" class="edge">
<title>140237317922320&#45;&gt;140237318448032</title>
<path fill="none" stroke="black" d="M291.24,-227.88C291.24,-221.05 291.24,-211.03 291.24,-202.29"/>
<polygon fill="black" stroke="black" points="294.74,-202.24 291.24,-192.24 287.74,-202.24 294.74,-202.24"/>
</g>
<!-- 140237318448656 -->
<g id="node8" class="node">
<title>140237318448656</title>
<polygon fill="lightgrey" stroke="black" points="272.16,-306 172.32,-306 172.32,-288 272.16,-288 272.16,-306"/>
<text text-anchor="middle" x="222.24" y="-294" font-family="monospace" font-size="10.00">AddmmBackward0</text>
</g>
<!-- 140237318448656&#45;&gt;140237317922320 -->
<g id="edge6" class="edge">
<title>140237318448656&#45;&gt;140237317922320</title>
<path fill="none" stroke="black" d="M231.83,-287.94C242.53,-278.95 260.05,-264.22 273.3,-253.08"/>
<polygon fill="black" stroke="black" points="275.88,-255.49 281.28,-246.37 271.37,-250.13 275.88,-255.49"/>
</g>
<!-- 140237318448800 -->
<g id="node9" class="node">
<title>140237318448800</title>
<polygon fill="lightgrey" stroke="black" points="130.72,-371 39.76,-371 39.76,-353 130.72,-353 130.72,-371"/>
<text text-anchor="middle" x="85.24" y="-359" font-family="monospace" font-size="10.00">AccumulateGrad</text>
</g>
<!-- 140237318448800&#45;&gt;140237318448656 -->
<g id="edge7" class="edge">
<title>140237318448800&#45;&gt;140237318448656</title>
<path fill="none" stroke="black" d="M102.87,-352.89C126.3,-342.12 167.91,-322.98 195.29,-310.39"/>
<polygon fill="black" stroke="black" points="197.05,-313.43 204.68,-306.08 194.13,-307.07 197.05,-313.43"/>
</g>
<!-- 140237318459936 -->
<g id="node10" class="node">
<title>140237318459936</title>
<polygon fill="lightblue" stroke="black" points="85.24,-441 31.24,-441 31.24,-413 85.24,-413 85.24,-441"/>
<text text-anchor="middle" x="58.24" y="-429" font-family="monospace" font-size="10.00">2.bias</text>
<text text-anchor="middle" x="58.24" y="-419" font-family="monospace" font-size="10.00"> (1024)</text>
</g>
<!-- 140237318459936&#45;&gt;140237318448800 -->
<g id="edge8" class="edge">
<title>140237318459936&#45;&gt;140237318448800</title>
<path fill="none" stroke="black" d="M63.83,-412.95C67.86,-403.54 73.35,-390.74 77.76,-380.46"/>
<polygon fill="black" stroke="black" points="80.99,-381.8 81.71,-371.23 74.56,-379.04 80.99,-381.8"/>
</g>
<!-- 140237317922112 -->
<g id="node11" class="node">
<title>140237317922112</title>
<polygon fill="lightgrey" stroke="black" points="279.95,-371 162.52,-371 162.52,-353 279.95,-353 279.95,-371"/>
<text text-anchor="middle" x="221.24" y="-359" font-family="monospace" font-size="10.00">ELUFunctionBackward</text>
</g>
<!-- 140237317922112&#45;&gt;140237318448656 -->
<g id="edge9" class="edge">
<title>140237317922112&#45;&gt;140237318448656</title>
<path fill="none" stroke="black" d="M221.37,-352.76C221.52,-343.56 221.76,-328.38 221.95,-316.33"/>
<polygon fill="black" stroke="black" points="225.45,-316.09 222.11,-306.04 218.45,-315.98 225.45,-316.09"/>
</g>
<!-- 140237318448848 -->
<g id="node12" class="node">
<title>140237318448848</title>
<polygon fill="lightgrey" stroke="black" points="203.16,-436 103.32,-436 103.32,-418 203.16,-418 203.16,-436"/>
<text text-anchor="middle" x="153.24" y="-424" font-family="monospace" font-size="10.00">AddmmBackward0</text>
</g>
<!-- 140237318448848&#45;&gt;140237317922112 -->
<g id="edge10" class="edge">
<title>140237318448848&#45;&gt;140237317922112</title>
<path fill="none" stroke="black" d="M162.13,-417.76C172.98,-407.71 191.54,-390.51 204.98,-378.07"/>
<polygon fill="black" stroke="black" points="207.6,-380.4 212.56,-371.04 202.85,-375.27 207.6,-380.4"/>
</g>
<!-- 140237318449088 -->
<g id="node13" class="node">
<title>140237318449088</title>
<polygon fill="lightgrey" stroke="black" points="90.72,-501 -0.24,-501 -0.24,-483 90.72,-483 90.72,-501"/>
<text text-anchor="middle" x="45.24" y="-489" font-family="monospace" font-size="10.00">AccumulateGrad</text>
</g>
<!-- 140237318449088&#45;&gt;140237318448848 -->
<g id="edge11" class="edge">
<title>140237318449088&#45;&gt;140237318448848</title>
<path fill="none" stroke="black" d="M59.36,-482.76C77.49,-472.19 109.17,-453.71 130.66,-441.17"/>
<polygon fill="black" stroke="black" points="132.58,-444.1 139.46,-436.04 129.06,-438.05 132.58,-444.1"/>
</g>
<!-- 140237318459776 -->
<g id="node14" class="node">
<title>140237318459776</title>
<polygon fill="lightblue" stroke="black" points="72.24,-570 18.24,-570 18.24,-542 72.24,-542 72.24,-570"/>
<text text-anchor="middle" x="45.24" y="-558" font-family="monospace" font-size="10.00">0.bias</text>
<text text-anchor="middle" x="45.24" y="-548" font-family="monospace" font-size="10.00"> (1024)</text>
</g>
<!-- 140237318459776&#45;&gt;140237318449088 -->
<g id="edge12" class="edge">
<title>140237318459776&#45;&gt;140237318449088</title>
<path fill="none" stroke="black" d="M45.24,-541.85C45.24,-532.96 45.24,-521.1 45.24,-511.29"/>
<polygon fill="black" stroke="black" points="48.74,-511.02 45.24,-501.02 41.74,-511.02 48.74,-511.02"/>
</g>
<!-- 140237318449040 -->
<g id="node15" class="node">
<title>140237318449040</title>
<polygon fill="lightgrey" stroke="black" points="198.72,-501 107.76,-501 107.76,-483 198.72,-483 198.72,-501"/>
<text text-anchor="middle" x="153.24" y="-489" font-family="monospace" font-size="10.00">AccumulateGrad</text>
</g>
<!-- 140237318449040&#45;&gt;140237318448848 -->
<g id="edge13" class="edge">
<title>140237318449040&#45;&gt;140237318448848</title>
<path fill="none" stroke="black" d="M153.24,-482.76C153.24,-473.56 153.24,-458.38 153.24,-446.33"/>
<polygon fill="black" stroke="black" points="156.74,-446.04 153.24,-436.04 149.74,-446.04 156.74,-446.04"/>
</g>
<!-- 140237544878704 -->
<g id="node16" class="node">
<title>140237544878704</title>
<polygon fill="lightblue" stroke="black" points="182.54,-570 123.94,-570 123.94,-542 182.54,-542 182.54,-570"/>
<text text-anchor="middle" x="153.24" y="-558" font-family="monospace" font-size="10.00">x</text>
<text text-anchor="middle" x="153.24" y="-548" font-family="monospace" font-size="10.00"> (10, 512)</text>
</g>
<!-- 140237544878704&#45;&gt;140237318449040 -->
<g id="edge14" class="edge">
<title>140237544878704&#45;&gt;140237318449040</title>
<path fill="none" stroke="black" d="M153.24,-541.85C153.24,-532.96 153.24,-521.1 153.24,-511.29"/>
<polygon fill="black" stroke="black" points="156.74,-511.02 153.24,-501.02 149.74,-511.02 156.74,-511.02"/>
</g>
<!-- 140237318448944 -->
<g id="node17" class="node">
<title>140237318448944</title>
<polygon fill="lightgrey" stroke="black" points="287.82,-501 216.66,-501 216.66,-483 287.82,-483 287.82,-501"/>
<text text-anchor="middle" x="252.24" y="-489" font-family="monospace" font-size="10.00">TBackward0</text>
</g>
<!-- 140237318448944&#45;&gt;140237318448848 -->
<g id="edge15" class="edge">
<title>140237318448944&#45;&gt;140237318448848</title>
<path fill="none" stroke="black" d="M239.3,-482.76C222.83,-472.28 194.16,-454.04 174.47,-441.51"/>
<polygon fill="black" stroke="black" points="176.19,-438.45 165.87,-436.04 172.43,-444.36 176.19,-438.45"/>
</g>
<!-- 140237318449376 -->
<g id="node18" class="node">
<title>140237318449376</title>
<polygon fill="lightgrey" stroke="black" points="297.72,-565 206.76,-565 206.76,-547 297.72,-547 297.72,-565"/>
<text text-anchor="middle" x="252.24" y="-553" font-family="monospace" font-size="10.00">AccumulateGrad</text>
</g>
<!-- 140237318449376&#45;&gt;140237318448944 -->
<g id="edge16" class="edge">
<title>140237318449376&#45;&gt;140237318448944</title>
<path fill="none" stroke="black" d="M252.24,-546.89C252.24,-537.94 252.24,-523.23 252.24,-511.43"/>
<polygon fill="black" stroke="black" points="255.74,-511.31 252.24,-501.31 248.74,-511.31 255.74,-511.31"/>
</g>
<!-- 140237544850112 -->
<g id="node19" class="node">
<title>140237544850112</title>
<polygon fill="lightblue" stroke="black" points="287.16,-634 217.31,-634 217.31,-606 287.16,-606 287.16,-634"/>
<text text-anchor="middle" x="252.24" y="-622" font-family="monospace" font-size="10.00">0.weight</text>
<text text-anchor="middle" x="252.24" y="-612" font-family="monospace" font-size="10.00"> (1024, 512)</text>
</g>
<!-- 140237544850112&#45;&gt;140237318449376 -->
<g id="edge17" class="edge">
<title>140237544850112&#45;&gt;140237318449376</title>
<path fill="none" stroke="black" d="M252.24,-605.85C252.24,-596.96 252.24,-585.1 252.24,-575.29"/>
<polygon fill="black" stroke="black" points="255.74,-575.02 252.24,-565.02 248.74,-575.02 255.74,-575.02"/>
</g>
<!-- 140237544881344 -->
<g id="node20" class="node">
<title>140237544881344</title>
<polygon fill="orange" stroke="black" points="285.6,-442 220.87,-442 220.87,-412 285.6,-412 285.6,-442"/>
<text text-anchor="middle" x="253.24" y="-418" font-family="monospace" font-size="10.00"> (10, 1024)</text>
</g>
<!-- 140237544881344&#45;&gt;140237317922112 -->
<g id="edge18" class="edge">
<title>140237544881344&#45;&gt;140237317922112</title>
<path fill="none" stroke="black" d="M245.98,-411.7C241.27,-402.44 235.11,-390.3 230.11,-380.46"/>
<polygon fill="black" stroke="black" points="233.08,-378.59 225.43,-371.26 226.84,-381.76 233.08,-378.59"/>
</g>
<!-- 140237318448752 -->
<g id="node21" class="node">
<title>140237318448752</title>
<polygon fill="lightgrey" stroke="black" points="369.82,-371 298.66,-371 298.66,-353 369.82,-353 369.82,-371"/>
<text text-anchor="middle" x="334.24" y="-359" font-family="monospace" font-size="10.00">TBackward0</text>
</g>
<!-- 140237318448752&#45;&gt;140237318448656 -->
<g id="edge19" class="edge">
<title>140237318448752&#45;&gt;140237318448656</title>
<path fill="none" stroke="black" d="M319.6,-352.76C300.71,-342.14 267.65,-323.54 245.35,-311"/>
<polygon fill="black" stroke="black" points="246.96,-307.89 236.53,-306.04 243.53,-313.99 246.96,-307.89"/>
</g>
<!-- 140237318449280 -->
<g id="node22" class="node">
<title>140237318449280</title>
<polygon fill="lightgrey" stroke="black" points="393.72,-436 302.76,-436 302.76,-418 393.72,-418 393.72,-436"/>
<text text-anchor="middle" x="348.24" y="-424" font-family="monospace" font-size="10.00">AccumulateGrad</text>
</g>
<!-- 140237318449280&#45;&gt;140237318448752 -->
<g id="edge20" class="edge">
<title>140237318449280&#45;&gt;140237318448752</title>
<path fill="none" stroke="black" d="M346.41,-417.76C344.34,-408.47 340.92,-393.07 338.23,-380.96"/>
<polygon fill="black" stroke="black" points="341.61,-380.04 336.03,-371.04 334.78,-381.56 341.61,-380.04"/>
</g>
<!-- 140237544849552 -->
<g id="node23" class="node">
<title>140237544849552</title>
<polygon fill="lightblue" stroke="black" points="386.23,-506 310.25,-506 310.25,-478 386.23,-478 386.23,-506"/>
<text text-anchor="middle" x="348.24" y="-494" font-family="monospace" font-size="10.00">2.weight</text>
<text text-anchor="middle" x="348.24" y="-484" font-family="monospace" font-size="10.00"> (1024, 1024)</text>
</g>
<!-- 140237544849552&#45;&gt;140237318449280 -->
<g id="edge21" class="edge">
<title>140237544849552&#45;&gt;140237318449280</title>
<path fill="none" stroke="black" d="M348.24,-477.95C348.24,-468.83 348.24,-456.54 348.24,-446.43"/>
<polygon fill="black" stroke="black" points="351.74,-446.23 348.24,-436.23 344.74,-446.23 351.74,-446.23"/>
</g>
<!-- 140237318460016 -->
<g id="node24" class="node">
<title>140237318460016</title>
<polygon fill="orange" stroke="black" points="354.6,-312 289.87,-312 289.87,-282 354.6,-282 354.6,-312"/>
<text text-anchor="middle" x="322.24" y="-288" font-family="monospace" font-size="10.00"> (10, 1024)</text>
</g>
<!-- 140237318460016&#45;&gt;140237317922320 -->
<g id="edge22" class="edge">
<title>140237318460016&#45;&gt;140237317922320</title>
<path fill="none" stroke="black" d="M314.73,-281.96C310.41,-273.86 304.93,-263.62 300.36,-255.07"/>
<polygon fill="black" stroke="black" points="303.33,-253.19 295.52,-246.02 297.15,-256.49 303.33,-253.19"/>
</g>
<!-- 140237318447696 -->
<g id="node25" class="node">
<title>140237318447696</title>
<polygon fill="lightgrey" stroke="black" points="446.82,-246 375.66,-246 375.66,-228 446.82,-228 446.82,-246"/>
<text text-anchor="middle" x="411.24" y="-234" font-family="monospace" font-size="10.00">TBackward0</text>
</g>
<!-- 140237318447696&#45;&gt;140237318448032 -->
<g id="edge23" class="edge">
<title>140237318447696&#45;&gt;140237318448032</title>
<path fill="none" stroke="black" d="M392.75,-227.99C373.17,-219.5 342,-206 319.37,-196.19"/>
<polygon fill="black" stroke="black" points="320.51,-192.87 309.94,-192.11 317.73,-199.29 320.51,-192.87"/>
</g>
<!-- 140237318449184 -->
<g id="node26" class="node">
<title>140237318449184</title>
<polygon fill="lightgrey" stroke="black" points="464.72,-306 373.76,-306 373.76,-288 464.72,-288 464.72,-306"/>
<text text-anchor="middle" x="419.24" y="-294" font-family="monospace" font-size="10.00">AccumulateGrad</text>
</g>
<!-- 140237318449184&#45;&gt;140237318447696 -->
<g id="edge24" class="edge">
<title>140237318449184&#45;&gt;140237318447696</title>
<path fill="none" stroke="black" d="M418.13,-287.94C417,-279.8 415.23,-266.97 413.77,-256.35"/>
<polygon fill="black" stroke="black" points="417.23,-255.8 412.39,-246.37 410.29,-256.76 417.23,-255.8"/>
</g>
<!-- 140237318460096 -->
<g id="node27" class="node">
<title>140237318460096</title>
<polygon fill="lightblue" stroke="black" points="452.6,-376 387.87,-376 387.87,-348 452.6,-348 452.6,-376"/>
<text text-anchor="middle" x="420.24" y="-364" font-family="monospace" font-size="10.00">4.weight</text>
<text text-anchor="middle" x="420.24" y="-354" font-family="monospace" font-size="10.00"> (10, 1024)</text>
</g>
<!-- 140237318460096&#45;&gt;140237318449184 -->
<g id="edge25" class="edge">
<title>140237318460096&#45;&gt;140237318449184</title>
<path fill="none" stroke="black" d="M420.03,-347.95C419.89,-338.83 419.69,-326.54 419.53,-316.43"/>
<polygon fill="black" stroke="black" points="423.03,-316.17 419.37,-306.23 416.03,-316.28 423.03,-316.17"/>
</g>
</g>
</svg>
