<?xml version="1.0" encoding="UTF-8" standalone="no"?>
<!DOCTYPE svg PUBLIC "-//W3C//DTD SVG 1.1//EN"
 "http://www.w3.org/Graphics/SVG/1.1/DTD/svg11.dtd">
<!-- Generated by graphviz version 2.42.3 (20191010.1750)
 -->
<!-- Title: %3 Pages: 1 -->
<svg width="149pt" height="210pt"
 viewBox="0.00 0.00 149.10 210.00" xmlns="http://www.w3.org/2000/svg" xmlns:xlink="http://www.w3.org/1999/xlink">
<g id="graph0" class="graph" transform="scale(1 1) rotate(0) translate(4 206)">
<title>%3</title>
<polygon fill="white" stroke="transparent" points="-4,4 -4,-206 145.1,-206 145.1,4 -4,4"/>
<!-- 140237544881024 -->
<g id="node1" class="node">
<title>140237544881024</title>
<polygon fill="#caff70" stroke="black" points="85.86,-30 31.86,-30 31.86,0 85.86,0 85.86,-30"/>
<text text-anchor="middle" x="58.86" y="-6" font-family="monospace" font-size="10.00"> (6)</text>
</g>
<!-- 140237318430784 -->
<g id="node2" class="node">
<title>140237318430784</title>
<polygon fill="lightgrey" stroke="black" points="117.57,-84 0.14,-84 0.14,-66 117.57,-66 117.57,-84"/>
<text text-anchor="middle" x="58.86" y="-72" font-family="monospace" font-size="10.00">ELUFunctionBackward</text>
</g>
<!-- 140237318430784&#45;&gt;140237544881024 -->
<g id="edge4" class="edge">
<title>140237318430784&#45;&gt;140237544881024</title>
<path fill="none" stroke="black" d="M58.86,-65.94C58.86,-59.31 58.86,-49.57 58.86,-40.45"/>
<polygon fill="black" stroke="black" points="62.36,-40.24 58.86,-30.24 55.36,-40.24 62.36,-40.24"/>
</g>
<!-- 140237544865600 -->
<g id="node3" class="node">
<title>140237544865600</title>
<polygon fill="lightgrey" stroke="black" points="141.34,-138 50.38,-138 50.38,-120 141.34,-120 141.34,-138"/>
<text text-anchor="middle" x="95.86" y="-126" font-family="monospace" font-size="10.00">AccumulateGrad</text>
</g>
<!-- 140237544865600&#45;&gt;140237318430784 -->
<g id="edge1" class="edge">
<title>140237544865600&#45;&gt;140237318430784</title>
<path fill="none" stroke="black" d="M90.08,-119.88C84.89,-112.59 77.13,-101.68 70.64,-92.56"/>
<polygon fill="black" stroke="black" points="73.37,-90.36 64.72,-84.24 67.67,-94.42 73.37,-90.36"/>
</g>
<!-- 140237543719216 -->
<g id="node4" class="node">
<title>140237543719216</title>
<polygon fill="orange" stroke="black" points="85.86,-202 31.86,-202 31.86,-174 85.86,-174 85.86,-202"/>
<text text-anchor="middle" x="58.86" y="-190" font-family="monospace" font-size="10.00">z</text>
<text text-anchor="middle" x="58.86" y="-180" font-family="monospace" font-size="10.00"> (6)</text>
</g>
<!-- 140237543719216&#45;&gt;140237318430784 -->
<g id="edge3" class="edge">
<title>140237543719216&#45;&gt;140237318430784</title>
<path fill="none" stroke="black" d="M51.99,-173.76C45.86,-160.33 38.34,-138.88 41.86,-120 43.55,-110.93 47.04,-101.33 50.43,-93.41"/>
<polygon fill="black" stroke="black" points="53.68,-94.72 54.65,-84.17 47.31,-91.81 53.68,-94.72"/>
</g>
<!-- 140237543719216&#45;&gt;140237544865600 -->
<g id="edge2" class="edge">
<title>140237543719216&#45;&gt;140237544865600</title>
<path fill="none" stroke="black" d="M67.44,-173.78C72.71,-165.66 79.5,-155.2 85.12,-146.54"/>
<polygon fill="black" stroke="black" points="88.13,-148.34 90.63,-138.05 82.25,-144.53 88.13,-148.34"/>
</g>
</g>
</svg>
