<?xml version="1.0" encoding="UTF-8" standalone="no"?>
<!DOCTYPE svg PUBLIC "-//W3C//DTD SVG 1.1//EN"
 "http://www.w3.org/Graphics/SVG/1.1/DTD/svg11.dtd">
<!-- Generated by graphviz version 2.42.3 (20191010.1750)
 -->
<!-- Title: %3 Pages: 1 -->
<svg width="136pt" height="372pt"
 viewBox="0.00 0.00 136.43 372.00" xmlns="http://www.w3.org/2000/svg" xmlns:xlink="http://www.w3.org/1999/xlink">
<g id="graph0" class="graph" transform="scale(1 1) rotate(0) translate(4 368)">
<title>%3</title>
<polygon fill="white" stroke="transparent" points="-4,4 -4,-368 132.43,-368 132.43,4 -4,4"/>
<!-- 140237544850352 -->
<g id="node1" class="node">
<title>140237544850352</title>
<polygon fill="#caff70" stroke="black" points="77.8,-30 23.8,-30 23.8,0 77.8,0 77.8,-30"/>
<text text-anchor="middle" x="50.8" y="-6" font-family="monospace" font-size="10.00"> (6)</text>
</g>
<!-- 140237536865728 -->
<g id="node2" class="node">
<title>140237536865728</title>
<polygon fill="lightgrey" stroke="black" points="101.39,-84 0.2,-84 0.2,-66 101.39,-66 101.39,-84"/>
<text text-anchor="middle" x="50.8" y="-72" font-family="monospace" font-size="10.00">SWhereBackward0</text>
</g>
<!-- 140237536865728&#45;&gt;140237544850352 -->
<g id="edge7" class="edge">
<title>140237536865728&#45;&gt;140237544850352</title>
<path fill="none" stroke="black" d="M50.8,-65.94C50.8,-59.31 50.8,-49.57 50.8,-40.45"/>
<polygon fill="black" stroke="black" points="54.3,-40.24 50.8,-30.24 47.3,-40.24 54.3,-40.24"/>
</g>
<!-- 140237536865872 -->
<g id="node3" class="node">
<title>140237536865872</title>
<polygon fill="lightgrey" stroke="black" points="96.27,-300 5.32,-300 5.32,-282 96.27,-282 96.27,-300"/>
<text text-anchor="middle" x="50.8" y="-288" font-family="monospace" font-size="10.00">AccumulateGrad</text>
</g>
<!-- 140237536865872&#45;&gt;140237536865728 -->
<g id="edge1" class="edge">
<title>140237536865872&#45;&gt;140237536865728</title>
<path fill="none" stroke="black" d="M47.08,-281.78C43.37,-273.09 37.93,-258.9 35.8,-246 26.64,-190.75 26.64,-175.25 35.8,-120 37.28,-111.03 40.36,-101.44 43.35,-93.5"/>
<polygon fill="black" stroke="black" points="46.6,-94.81 47.08,-84.22 40.1,-92.2 46.6,-94.81"/>
</g>
<!-- 140237544861856 -->
<g id="node7" class="node">
<title>140237544861856</title>
<polygon fill="lightgrey" stroke="black" points="127,-246 44.6,-246 44.6,-228 127,-228 127,-246"/>
<text text-anchor="middle" x="85.8" y="-234" font-family="monospace" font-size="10.00">ExpBackward0</text>
</g>
<!-- 140237536865872&#45;&gt;140237544861856 -->
<g id="edge6" class="edge">
<title>140237536865872&#45;&gt;140237544861856</title>
<path fill="none" stroke="black" d="M56.26,-281.88C61.17,-274.59 68.51,-263.68 74.65,-254.56"/>
<polygon fill="black" stroke="black" points="77.57,-256.49 80.25,-246.24 71.76,-252.58 77.57,-256.49"/>
</g>
<!-- 140237318391184 -->
<g id="node4" class="node">
<title>140237318391184</title>
<polygon fill="lightblue" stroke="black" points="77.8,-364 23.8,-364 23.8,-336 77.8,-336 77.8,-364"/>
<text text-anchor="middle" x="50.8" y="-352" font-family="monospace" font-size="10.00">z</text>
<text text-anchor="middle" x="50.8" y="-342" font-family="monospace" font-size="10.00"> (6)</text>
</g>
<!-- 140237318391184&#45;&gt;140237536865872 -->
<g id="edge2" class="edge">
<title>140237318391184&#45;&gt;140237536865872</title>
<path fill="none" stroke="black" d="M50.8,-335.78C50.8,-328.18 50.8,-318.53 50.8,-310.22"/>
<polygon fill="black" stroke="black" points="54.3,-310.05 50.8,-300.05 47.3,-310.05 54.3,-310.05"/>
</g>
<!-- 140237536865392 -->
<g id="node5" class="node">
<title>140237536865392</title>
<polygon fill="lightgrey" stroke="black" points="126.38,-138 45.21,-138 45.21,-120 126.38,-120 126.38,-138"/>
<text text-anchor="middle" x="85.8" y="-126" font-family="monospace" font-size="10.00">MulBackward0</text>
</g>
<!-- 140237536865392&#45;&gt;140237536865728 -->
<g id="edge3" class="edge">
<title>140237536865392&#45;&gt;140237536865728</title>
<path fill="none" stroke="black" d="M80.33,-119.88C75.42,-112.59 68.08,-101.68 61.94,-92.56"/>
<polygon fill="black" stroke="black" points="64.83,-90.58 56.34,-84.24 59.02,-94.49 64.83,-90.58"/>
</g>
<!-- 140237543622928 -->
<g id="node6" class="node">
<title>140237543622928</title>
<polygon fill="lightgrey" stroke="black" points="128.56,-192 45.03,-192 45.03,-174 128.56,-174 128.56,-192"/>
<text text-anchor="middle" x="86.8" y="-180" font-family="monospace" font-size="10.00">SubBackward0</text>
</g>
<!-- 140237543622928&#45;&gt;140237536865392 -->
<g id="edge4" class="edge">
<title>140237543622928&#45;&gt;140237536865392</title>
<path fill="none" stroke="black" d="M86.64,-173.88C86.51,-167.05 86.32,-157.03 86.15,-148.29"/>
<polygon fill="black" stroke="black" points="89.65,-148.17 85.95,-138.24 82.65,-148.31 89.65,-148.17"/>
</g>
<!-- 140237544861856&#45;&gt;140237543622928 -->
<g id="edge5" class="edge">
<title>140237544861856&#45;&gt;140237543622928</title>
<path fill="none" stroke="black" d="M85.95,-227.88C86.08,-221.05 86.28,-211.03 86.44,-202.29"/>
<polygon fill="black" stroke="black" points="89.94,-202.31 86.64,-192.24 82.95,-202.17 89.94,-202.31"/>
</g>
</g>
</svg>
